<?xml version="1.0" encoding="UTF-8" ?>
<!DOCTYPE svg PUBLIC "-//W3C//DTD SVG 1.1//EN" "http://www.w3.org/Graphics/SVG/1.1/DTD/svg11.dtd">
<svg width="512pt" height="512pt" viewBox="0 0 512 512" version="1.1" xmlns="http://www.w3.org/2000/svg">
<g id="#8c808dff">
<path fill="#8c808d" opacity="1.00" d=" M 253.37 8.48 C 258.28 6.55 264.17 10.70 263.93 15.98 C 263.98 26.67 264.01 37.35 263.91 48.04 C 263.99 52.22 260.18 55.90 256.02 55.79 C 251.85 55.93 248.02 52.25 248.08 48.06 C 247.99 37.34 248.01 26.61 248.07 15.89 C 248.01 12.61 250.27 9.51 253.37 8.48 Z" />
<path fill="#8c808d" opacity="1.00" d=" M 155.52 46.63 C 159.00 45.19 163.37 46.61 165.25 49.90 C 170.44 58.68 175.44 67.58 180.59 76.39 C 182.16 78.86 183.05 82.03 181.72 84.80 C 180.11 88.82 174.96 90.82 171.08 88.88 C 168.54 87.79 167.23 85.21 165.92 82.95 C 161.14 74.48 156.12 66.13 151.40 57.62 C 149.15 53.66 151.31 48.19 155.52 46.63 Z" />
<path fill="#8c808d" opacity="1.00" d=" M 350.44 46.68 C 356.50 43.74 363.76 50.72 360.93 56.86 C 355.99 66.17 350.42 75.14 345.27 84.34 C 343.76 87.40 340.71 89.94 337.12 89.60 C 331.75 89.52 327.84 83.09 330.41 78.32 C 335.21 69.57 340.38 61.02 345.29 52.33 C 346.54 50.11 347.91 47.64 350.44 46.68 Z" />
<path fill="#8c808d" opacity="1.00" d=" M 43.57 356.76 C 46.70 353.20 51.36 351.35 56.02 351.03 C 61.93 351.06 66.95 354.61 71.03 358.56 C 100.43 383.81 130.23 408.62 159.77 433.70 C 163.99 437.23 168.09 440.89 172.43 444.28 C 176.06 447.07 179.82 450.29 181.12 454.87 C 183.22 460.30 181.61 466.57 178.04 470.99 C 168.76 482.11 159.29 493.07 150.07 504.24 C 145.78 501.45 142.28 497.66 138.16 494.64 L 138.27 494.52 C 143.24 489.02 147.81 483.18 152.71 477.63 C 155.90 473.95 159.29 469.93 159.73 464.87 C 160.46 459.35 158.04 453.75 153.88 450.14 C 117.17 418.94 80.18 388.06 43.57 356.76 Z" />
<path fill="#8c808d" opacity="1.00" d=" M 446.25 354.32 C 450.39 351.25 456.10 350.13 460.99 352.00 C 466.50 353.48 469.88 358.41 473.37 362.53 C 481.25 371.88 489.24 381.14 496.99 390.59 C 454.19 426.57 411.56 462.75 368.81 498.78 C 366.61 500.72 364.43 502.68 361.93 504.23 C 359.60 501.12 356.86 498.35 354.52 495.25 C 367.09 483.86 380.40 473.33 393.21 462.23 C 416.54 442.58 439.81 422.85 463.14 403.19 C 467.26 399.85 469.90 394.43 468.84 389.09 C 467.82 383.96 463.77 380.32 460.60 376.45 C 454.93 369.81 449.32 363.11 443.63 356.49 C 444.49 355.74 445.36 355.02 446.25 354.32 Z" />
</g>
<g id="#ffe0d1ff">
<path fill="#ffe0d1" opacity="1.00" d=" M 252.27 91.14 C 259.18 87.70 267.42 88.20 274.32 91.37 C 274.95 96.84 275.92 102.59 273.91 107.91 C 272.33 112.89 268.63 116.74 266.39 121.37 C 264.01 127.36 270.44 134.47 276.64 132.60 C 280.14 131.31 282.72 128.34 284.76 125.32 C 288.79 118.49 296.01 113.56 303.98 112.92 C 308.81 112.29 313.52 113.78 317.98 115.46 L 317.99 115.52 C 318.95 121.80 319.50 128.55 316.41 134.37 C 313.97 140.05 308.56 144.04 306.84 150.05 C 305.28 155.55 310.53 160.94 316.01 160.25 C 320.80 160.05 323.19 155.31 326.06 152.18 C 333.37 143.73 346.16 141.72 356.06 146.58 C 356.74 152.14 357.62 158.00 355.49 163.38 C 353.91 168.43 349.81 172.10 347.78 176.90 C 346.09 181.24 349.04 186.26 353.30 187.68 C 356.96 189.06 360.99 187.31 363.53 184.59 C 370.72 176.62 383.00 174.94 392.52 179.46 C 393.39 184.76 394.41 190.34 392.54 195.57 C 390.38 201.73 386.16 206.90 382.09 211.91 C 376.52 208.20 370.57 205.14 364.41 202.56 C 349.38 195.14 334.19 188.06 319.08 180.82 C 314.35 178.23 308.85 178.65 303.65 178.44 C 295.59 178.06 287.52 178.06 279.46 177.98 C 273.44 177.89 267.05 176.84 261.37 179.40 C 254.18 182.51 249.30 190.20 249.61 198.03 C 250.00 205.82 253.60 213.43 259.45 218.60 C 265.30 223.83 273.03 226.57 280.77 227.24 C 288.83 227.94 296.95 227.74 305.01 228.37 C 307.50 228.51 309.38 230.35 311.33 231.69 C 315.78 235.13 320.50 238.20 324.88 241.73 C 318.93 259.44 316.05 278.41 318.43 297.04 C 315.45 302.90 310.94 307.76 307.16 313.10 C 292.01 333.65 276.72 354.09 261.54 374.62 C 251.70 387.87 238.78 399.47 222.92 404.82 C 211.61 408.99 199.50 409.83 187.67 411.56 C 182.36 412.50 176.43 413.43 172.68 417.72 C 168.17 422.87 164.36 428.61 159.77 433.70 C 130.23 408.62 100.43 383.81 71.03 358.56 C 76.88 349.62 82.12 340.01 84.30 329.46 C 88.60 309.51 82.71 288.66 88.57 268.93 C 89.71 265.08 91.22 261.35 93.10 257.80 C 101.19 262.62 107.92 271.00 117.98 271.40 C 128.92 272.26 139.43 263.83 141.07 252.99 C 142.31 246.76 139.51 241.05 137.48 235.38 C 143.26 239.71 149.25 245.01 156.93 244.96 C 166.90 245.64 176.36 238.56 179.21 229.11 C 181.78 221.67 178.19 214.22 174.98 207.63 C 181.93 210.46 190.26 209.87 196.46 205.52 C 201.10 202.47 204.12 197.51 205.67 192.26 C 207.13 185.77 204.48 179.56 202.41 173.56 C 207.54 177.78 214.33 180.12 220.98 178.94 C 230.15 177.65 237.71 170.00 239.30 160.93 C 240.60 153.38 237.75 145.17 231.73 140.34 C 227.68 137.05 223.34 134.15 219.27 130.88 C 226.23 121.34 233.33 111.91 240.34 102.41 C 243.47 97.89 247.12 93.43 252.27 91.14 Z" />
</g>
<g id="#ffcebfff">
<path fill="#ffcebf" opacity="1.00" d=" M 274.32 91.37 C 281.18 94.96 286.21 101.86 287.30 109.55 C 288.38 114.91 286.90 120.41 284.76 125.32 C 282.72 128.34 280.14 131.31 276.64 132.60 C 270.44 134.47 264.01 127.36 266.39 121.37 C 268.63 116.74 272.33 112.89 273.91 107.91 C 275.92 102.59 274.95 96.84 274.32 91.37 Z" />
<path fill="#ffcebf" opacity="1.00" d=" M 168.01 113.39 C 175.57 107.80 186.63 107.16 194.39 112.70 C 202.73 118.70 210.98 124.82 219.27 130.88 C 223.34 134.15 227.68 137.05 231.73 140.34 C 237.75 145.17 240.60 153.38 239.30 160.93 C 234.88 163.28 230.09 165.46 224.95 165.03 C 220.20 164.89 215.65 163.00 211.87 160.18 C 202.26 153.08 192.58 146.07 182.95 138.99 C 178.42 135.67 173.47 132.39 170.82 127.25 C 168.50 123.10 168.33 118.25 168.03 113.63 L 168.01 113.39 Z" />
<path fill="#ffcebf" opacity="1.00" d=" M 317.99 115.52 C 331.15 121.91 335.34 140.86 326.06 152.18 C 323.19 155.31 320.80 160.05 316.01 160.25 C 310.53 160.94 305.28 155.55 306.84 150.05 C 308.56 144.04 313.97 140.05 316.41 134.37 C 319.50 128.55 318.95 121.80 317.99 115.52 Z" />
<path fill="#ffcebf" opacity="1.00" d=" M 134.64 143.73 C 140.22 139.69 147.57 137.79 154.28 139.83 C 158.56 140.87 162.08 143.60 165.41 146.33 C 177.77 155.36 190.23 164.28 202.41 173.56 C 204.48 179.56 207.13 185.77 205.67 192.26 C 203.40 192.63 201.18 193.27 199.03 194.07 C 192.40 196.54 184.74 194.98 179.12 190.86 C 167.76 182.59 156.42 174.29 145.10 165.96 C 141.43 163.29 138.13 159.90 136.46 155.61 C 134.85 151.87 134.90 147.72 134.64 143.73 Z" />
<path fill="#ffcebf" opacity="1.00" d=" M 356.06 146.58 C 364.18 150.78 369.68 159.81 369.14 169.01 C 369.32 174.70 366.86 180.10 363.53 184.59 C 360.99 187.31 356.96 189.06 353.30 187.68 C 349.04 186.26 346.09 181.24 347.78 176.90 C 349.81 172.10 353.91 168.43 355.49 163.38 C 357.62 158.00 356.74 152.14 356.06 146.58 Z" />
<path fill="#ffcebf" opacity="1.00" d=" M 108.33 179.36 C 115.22 174.27 125.14 172.89 132.67 177.36 C 147.12 186.96 160.46 198.15 174.98 207.63 C 178.19 214.22 181.78 221.67 179.21 229.11 C 179.15 228.64 179.03 227.69 178.97 227.22 C 174.86 229.08 170.58 231.10 165.95 230.85 C 160.66 230.92 155.69 228.57 151.56 225.43 C 140.63 217.33 129.60 209.38 118.65 201.31 C 115.56 199.04 112.78 196.23 111.11 192.74 C 108.94 188.67 108.83 183.95 108.34 179.47 L 108.33 179.36 Z" />
<path fill="#ffcebf" opacity="1.00" d=" M 279.46 177.98 C 287.52 178.06 295.59 178.06 303.65 178.44 C 308.85 178.65 314.35 178.23 319.08 180.82 C 334.19 188.06 349.38 195.14 364.41 202.56 C 370.57 205.14 376.52 208.20 382.09 211.91 C 386.16 206.90 390.38 201.73 392.54 195.57 C 394.41 190.34 393.39 184.76 392.52 179.46 C 402.12 184.24 407.76 195.60 405.62 206.14 C 403.92 214.92 397.09 221.27 392.13 228.32 C 389.48 223.98 387.40 219.21 383.79 215.53 C 385.50 220.58 388.05 225.30 389.54 230.42 C 397.81 256.98 397.68 285.25 405.01 312.02 C 407.25 320.83 412.06 328.62 416.62 336.38 C 422.25 345.83 428.67 354.78 435.45 363.44 C 406.95 387.40 378.57 411.49 350.14 435.54 C 329.61 424.93 308.64 413.43 293.52 395.51 C 288.88 390.46 288.70 382.33 292.97 376.99 C 304.35 361.54 315.63 346.00 327.18 330.68 C 330.01 335.29 331.75 340.58 335.26 344.75 C 338.20 348.02 344.10 346.70 345.74 342.75 C 347.14 340.00 345.69 337.04 344.45 334.54 C 337.44 321.31 332.63 306.85 330.75 291.98 C 328.41 274.34 331.33 256.20 338.67 240.02 C 333.55 235.90 328.33 231.76 322.66 228.44 C 312.75 226.96 302.58 227.95 292.66 226.40 C 282.89 224.76 273.61 218.95 268.95 210.06 C 265.41 203.36 264.12 194.82 267.93 187.95 C 270.27 183.22 274.85 180.21 279.46 177.98 Z" />
<path fill="#ffcebf" opacity="1.00" d=" M 87.49 218.67 C 93.99 213.72 103.21 212.35 110.61 216.05 C 119.95 221.92 128.60 228.83 137.48 235.38 C 139.51 241.05 142.31 246.76 141.07 252.99 C 136.24 255.84 130.69 257.99 124.98 257.08 C 117.28 256.35 111.58 250.65 105.55 246.44 C 100.11 242.34 93.67 238.88 90.41 232.60 C 88.00 228.37 87.91 223.39 87.49 218.67 Z" />
<path fill="#ffcebf" opacity="1.00" d=" M 318.43 297.04 C 319.24 303.40 320.39 309.73 322.33 315.86 C 322.83 317.95 324.18 320.44 322.39 322.31 C 305.84 344.72 289.09 367.00 272.64 389.50 C 262.83 402.96 249.12 413.89 233.08 418.86 C 221.82 422.58 209.93 423.36 198.29 425.19 C 193.30 426.18 187.91 427.45 184.37 431.40 C 180.38 435.69 176.28 439.87 172.43 444.28 C 168.09 440.89 163.99 437.23 159.77 433.70 C 164.36 428.61 168.17 422.87 172.68 417.72 C 176.43 413.43 182.36 412.50 187.67 411.56 C 199.50 409.83 211.61 408.99 222.92 404.82 C 238.78 399.47 251.70 387.87 261.54 374.62 C 276.72 354.09 292.01 333.65 307.16 313.10 C 310.94 307.76 315.45 302.90 318.43 297.04 Z" />
</g>
<g id="#ffb09eff">
<path fill="#ffb09e" opacity="1.00" d=" M 165.41 146.33 C 156.91 137.24 157.75 121.05 168.03 113.63 C 168.33 118.25 168.50 123.10 170.82 127.25 C 173.47 132.39 178.42 135.67 182.95 138.99 C 192.58 146.07 202.26 153.08 211.87 160.18 C 215.65 163.00 220.20 164.89 224.95 165.03 C 230.09 165.46 234.88 163.28 239.30 160.93 C 237.71 170.00 230.15 177.65 220.98 178.94 C 214.33 180.12 207.54 177.78 202.41 173.56 C 190.23 164.28 177.77 155.36 165.41 146.33 Z" />
<path fill="#ffb09e" opacity="1.00" d=" M 126.03 162.08 C 125.80 155.04 129.19 148.14 134.64 143.73 C 134.90 147.72 134.85 151.87 136.46 155.61 C 138.13 159.90 141.43 163.29 145.10 165.96 C 156.42 174.29 167.76 182.59 179.12 190.86 C 184.74 194.98 192.40 196.54 199.03 194.07 C 201.18 193.27 203.40 192.63 205.67 192.26 C 204.12 197.51 201.10 202.47 196.46 205.52 C 190.26 209.87 181.93 210.46 174.98 207.63 C 160.46 198.15 147.12 186.96 132.67 177.36 C 128.88 173.16 126.37 167.76 126.03 162.08 Z" />
<path fill="#ffb09e" opacity="1.00" d=" M 261.37 179.40 C 267.05 176.84 273.44 177.89 279.46 177.98 C 274.85 180.21 270.27 183.22 267.93 187.95 C 264.12 194.82 265.41 203.36 268.95 210.06 C 273.61 218.95 282.89 224.76 292.66 226.40 C 302.58 227.95 312.75 226.96 322.66 228.44 C 328.33 231.76 333.55 235.90 338.67 240.02 C 331.33 256.20 328.41 274.34 330.75 291.98 C 332.63 306.85 337.44 321.31 344.45 334.54 C 345.69 337.04 347.14 340.00 345.74 342.75 C 344.10 346.70 338.20 348.02 335.26 344.75 C 331.75 340.58 330.01 335.29 327.18 330.68 C 315.63 346.00 304.35 361.54 292.97 376.99 C 288.70 382.33 288.88 390.46 293.52 395.51 C 308.64 413.43 329.61 424.93 350.14 435.54 C 347.90 437.49 345.66 439.44 343.33 441.29 C 324.69 430.87 304.08 423.43 287.76 409.23 C 281.59 403.67 275.60 397.41 272.64 389.50 C 289.09 367.00 305.84 344.72 322.39 322.31 C 324.18 320.44 322.83 317.95 322.33 315.86 C 320.39 309.73 319.24 303.40 318.43 297.04 C 316.05 278.41 318.93 259.44 324.88 241.73 C 320.50 238.20 315.78 235.13 311.33 231.69 C 309.38 230.35 307.50 228.51 305.01 228.37 C 296.95 227.74 288.83 227.94 280.77 227.24 C 273.03 226.57 265.30 223.83 259.45 218.60 C 253.60 213.43 250.00 205.82 249.61 198.03 C 249.30 190.20 254.18 182.51 261.37 179.40 Z" />
<path fill="#ffb09e" opacity="1.00" d=" M 100.05 199.08 C 99.30 191.71 102.54 184.06 108.34 179.47 C 108.83 183.95 108.94 188.67 111.11 192.74 C 112.78 196.23 115.56 199.04 118.65 201.31 C 129.60 209.38 140.63 217.33 151.56 225.43 C 155.69 228.57 160.66 230.92 165.95 230.85 C 170.58 231.10 174.86 229.08 178.97 227.22 C 179.03 227.69 179.15 228.64 179.21 229.11 C 176.36 238.56 166.90 245.64 156.93 244.96 C 149.25 245.01 143.26 239.71 137.48 235.38 C 128.60 228.83 119.95 221.92 110.61 216.05 C 104.91 212.19 100.75 205.99 100.05 199.08 Z" />
<path fill="#ffb09e" opacity="1.00" d=" M 383.79 215.53 C 387.40 219.21 389.48 223.98 392.13 228.32 C 400.77 246.19 404.43 265.90 409.46 284.97 C 412.47 296.89 415.48 308.95 420.99 320.01 C 427.49 332.72 436.68 343.81 446.25 354.32 C 445.36 355.02 444.49 355.74 443.63 356.49 C 440.93 358.84 438.22 361.18 435.45 363.44 C 428.67 354.78 422.25 345.83 416.62 336.38 C 412.06 328.62 407.25 320.83 405.01 312.02 C 397.68 285.25 397.81 256.98 389.54 230.42 C 388.05 225.30 385.50 220.58 383.79 215.53 Z" />
<path fill="#ffb09e" opacity="1.00" d=" M 80.59 244.43 C 76.70 235.53 79.99 224.60 87.49 218.67 C 87.91 223.39 88.00 228.37 90.41 232.60 C 93.67 238.88 100.11 242.34 105.55 246.44 C 111.58 250.65 117.28 256.35 124.98 257.08 C 130.69 257.99 136.24 255.84 141.07 252.99 C 139.43 263.83 128.92 272.26 117.98 271.40 C 107.92 271.00 101.19 262.62 93.10 257.80 C 87.94 254.45 82.71 250.47 80.59 244.43 Z" />
</g>
<g id="#a59ca6ff">
<path fill="#a59ca6" opacity="1.00" d=" M 435.45 363.44 C 438.22 361.18 440.93 358.84 443.63 356.49 C 449.32 363.11 454.93 369.81 460.60 376.45 C 463.77 380.32 467.82 383.96 468.84 389.09 C 469.90 394.43 467.26 399.85 463.14 403.19 C 439.81 422.85 416.54 442.58 393.21 462.23 C 380.40 473.33 367.09 483.86 354.52 495.25 C 347.75 487.13 340.87 479.10 334.10 470.98 C 330.44 466.64 328.94 460.34 330.96 454.94 C 332.78 448.71 338.69 445.26 343.33 441.29 C 345.66 439.44 347.90 437.49 350.14 435.54 C 378.57 411.49 406.95 387.40 435.45 363.44 Z" />
<path fill="#a59ca6" opacity="1.00" d=" M 15.15 390.57 C 24.50 379.20 34.17 368.10 43.57 356.76 C 80.18 388.06 117.17 418.94 153.88 450.14 C 158.04 453.75 160.46 459.35 159.73 464.87 C 159.29 469.93 155.90 473.95 152.71 477.63 C 147.81 483.18 143.24 489.02 138.27 494.52 C 97.24 459.86 56.26 425.14 15.15 390.57 Z" />
</g>
</svg>
