<svg width="157" height="37" viewBox="0 0 157 37" fill="none" xmlns="http://www.w3.org/2000/svg">
<path d="M52.7718 28.2053V16.0323H56.8443V12.5404H52.7718V11.7806C52.7718 10.6974 53.499 10.2609 54.6141 10.2609C55.1474 10.2609 55.7292 10.3418 56.1656 10.5196V7.28638C55.4868 6.99539 54.6464 6.81757 53.6445 6.81757C50.3961 6.81757 48.7154 8.57967 48.7154 11.6836V12.5404H45.564V16.0323H48.7315V28.2053H52.7718ZM63.034 28.2053V7.14089H58.9291V28.2053H63.034Z" fill="black"/>
<path d="M75.9948 28.2053H79.3078V18.344C79.3078 14.4965 76.8998 12.2494 72.7949 12.2494C69.0132 12.2494 66.4113 14.5935 66.1689 18.1985H69.8374C69.9829 16.4364 71.0333 15.4179 72.7949 15.4179C74.4918 15.4179 75.4938 16.4364 75.4938 18.1985V19.1362C74.5241 19.023 73.7645 18.9583 72.8918 18.9583C68.3183 18.9583 65.8618 20.6073 65.8618 23.6465C65.8618 26.5726 68.0274 28.4802 71.2919 28.4802C73.4252 28.4802 74.9928 27.7204 76.0109 26.2492L75.9948 28.2053ZM69.692 23.5333C69.692 22.1269 70.8394 21.3994 73.1504 21.3994C73.8615 21.3994 74.5241 21.4641 75.4938 21.6096V22.725C75.4938 24.5356 74.2332 25.6834 72.1484 25.6834C70.6293 25.6834 69.692 24.859 69.692 23.5333Z" fill="black"/>
<path d="M98.4426 20.3809C98.4426 15.7736 95.7114 12.2494 91.4934 12.2494C89.5056 12.2494 87.7764 13.1547 86.5643 14.836V12.5404H82.8149V33.8635H86.8875V26.1846C88.0673 27.7042 89.651 28.4963 91.4934 28.4963C95.7276 28.4963 98.4426 25.0045 98.4426 20.3809ZM94.2569 20.3809C94.2569 23.3717 92.5923 24.8751 90.5884 24.8751C88.6006 24.8751 86.9198 23.3555 86.9198 20.3809C86.9198 17.4064 88.5844 15.8706 90.5884 15.8706C92.5923 15.8544 94.2569 17.4387 94.2569 20.3809Z" fill="black"/>
<path d="M105.78 8.903C105.78 7.46421 104.665 6.44575 103.049 6.44575C101.432 6.44575 100.317 7.46421 100.317 8.903C100.317 10.2771 101.432 11.3117 103.049 11.3117C104.665 11.3117 105.78 10.2771 105.78 8.903ZM105.101 12.5404H101.061V28.0275C101.061 29.7573 100.301 30.4039 99.2184 30.4039C98.5396 30.4039 97.9578 30.2908 97.5215 30.0483V33.8312C98.2326 34.0898 98.9921 34.1545 99.7194 34.1545C102.822 34.1545 105.117 32.36 105.117 28.1407L105.101 12.5404Z" fill="black"/>
<path d="M118.062 28.2053H121.375V18.344C121.375 14.4965 118.967 12.2494 114.862 12.2494C111.081 12.2494 108.479 14.5935 108.236 18.1985H111.905C112.05 16.4364 113.101 15.4179 114.862 15.4179C116.559 15.4179 117.561 16.4364 117.561 18.1985V19.1362C116.591 19.023 115.832 18.9583 114.959 18.9583C110.386 18.9583 107.929 20.6073 107.929 23.6465C107.929 26.5726 110.095 28.4802 113.359 28.4802C115.493 28.4802 117.06 27.7204 118.078 26.2492L118.062 28.2053ZM111.759 23.5333C111.759 22.1269 112.907 21.3994 115.218 21.3994C115.929 21.3994 116.591 21.4641 117.561 21.6096V22.725C117.561 24.5356 116.301 25.6834 114.216 25.6834C112.697 25.6834 111.759 24.859 111.759 23.5333Z" fill="black"/>
<path d="M131.492 28.4963C135.677 28.4963 138.619 25.8289 139.087 21.5126H134.805C134.562 23.6465 133.366 24.8913 131.492 24.8913C129.359 24.8913 128.033 23.1938 128.033 20.3809C128.033 17.6004 129.375 15.8706 131.492 15.8706C133.334 15.8706 134.595 17.1639 134.805 19.2493H139.087C138.586 15.03 135.564 12.2655 131.492 12.2655C127.096 12.2655 123.864 15.6928 123.864 20.3971C123.864 25.1499 126.983 28.4963 131.492 28.4963Z" fill="black"/>
<path d="M145.778 28.2053V20.9306L151.758 28.2053H156.945L149.705 20.0576L156.186 12.5565H151.499L145.778 19.1846V7.14089H141.706V28.2053H145.778Z" fill="black"/>
<path fill-rule="evenodd" clip-rule="evenodd" d="M20.1567 36.4881C39.0307 36.1215 40.2523 28.6061 40.2523 26.8953C40.2523 25.1845 31.2734 23.7181 20.1567 23.7181C9.03993 23.7181 0.0610352 25.1234 0.0610352 26.8953C0.0610352 28.6672 1.28265 36.8547 20.1567 36.4881Z" fill="#FECB80"/>
<path d="M20.1567 33.3109C31.2889 33.3109 40.3134 30.2197 40.3134 26.4065C40.3134 22.5934 31.2889 19.5022 20.1567 19.5022C9.02446 19.5022 0 22.5934 0 26.4065C0 30.2197 9.02446 33.3109 20.1567 33.3109Z" fill="#EE6D01"/>
<path fill-rule="evenodd" clip-rule="evenodd" d="M20.1567 30.1336C39.0307 29.767 40.2523 22.2517 40.2523 20.5409C40.2523 18.8301 31.2734 17.3637 20.1567 17.3637C9.03993 17.3637 0.0610352 18.769 0.0610352 20.5409C0.0610352 22.2517 1.28265 30.4391 20.1567 30.1336Z" fill="#FECB80"/>
<path d="M20.1567 26.9564C31.2889 26.9564 40.3134 23.8653 40.3134 20.0521C40.3134 16.2389 31.2889 13.1478 20.1567 13.1478C9.02446 13.1478 0 16.2389 0 20.0521C0 23.8653 9.02446 26.9564 20.1567 26.9564Z" fill="#EE6D01"/>
<path fill-rule="evenodd" clip-rule="evenodd" d="M20.1567 23.7181C39.0307 23.3515 40.2523 15.8362 40.2523 14.1254C40.2523 12.4146 31.2734 10.9482 20.1567 10.9482C9.03993 10.9482 0.0610352 12.4146 0.0610352 14.1254C0.0610352 15.8362 1.28265 24.0847 20.1567 23.7181Z" fill="#FECB80"/>
<path d="M20.1567 20.6631C31.2889 20.6631 40.3134 17.5719 40.3134 13.7588C40.3134 9.94561 31.2889 6.85443 20.1567 6.85443C9.02446 6.85443 0 9.94561 0 13.7588C0 17.5719 9.02446 20.6631 20.1567 20.6631Z" fill="#EE6D01"/>
<path fill-rule="evenodd" clip-rule="evenodd" d="M20.1567 17.3637C39.0307 16.9971 40.2523 9.48174 40.2523 7.77093C40.2523 6.06013 31.2734 4.59372 20.1567 4.59372C9.03993 4.59372 0.0610352 5.99903 0.0610352 7.77093C0.0610352 9.54284 1.28265 17.7303 20.1567 17.3637Z" fill="#FECB80"/>
<path d="M20.1567 14.3087C31.2889 14.3087 40.3134 11.2175 40.3134 7.40433C40.3134 3.59117 31.2889 0.5 20.1567 0.5C9.02446 0.5 0 3.59117 0 7.40433C0 11.2175 9.02446 14.3087 20.1567 14.3087Z" fill="#EE6D01"/>
<path fill-rule="evenodd" clip-rule="evenodd" d="M20.1566 3.73832C26.5701 3.73832 31.9452 5.08253 32.7392 6.85443C32.8003 6.97663 32.8614 7.15994 32.8614 7.34324C32.8614 9.05404 30.1128 9.60395 28.5857 10.276C28.0971 10.5205 27.7306 11.1315 27.6085 11.7425V27.4452C27.6085 28.9116 26.4479 30.1336 24.982 30.1336H24.9209C23.4549 30.1336 22.2333 28.9116 22.2333 27.4452V12.9645C21.9279 10.8871 18.8739 10.0316 18.0187 12.9645V17.6081C18.0187 19.0745 16.8582 20.2965 15.3923 20.2965H15.3312C13.8652 20.2965 12.6436 19.1356 12.6436 17.6692V17.6081V11.8036C12.6436 11.1926 12.3382 10.7038 11.6663 10.2149C10.3836 9.72615 7.39067 8.99294 7.32959 7.34324V7.28214V7.22104C7.51283 5.32693 13.1934 3.73832 20.1566 3.73832Z" fill="#BF360B"/>
</svg>
