<?xml version="1.0" encoding="UTF-8" ?>
<!DOCTYPE svg PUBLIC "-//W3C//DTD SVG 1.1//EN" "http://www.w3.org/Graphics/SVG/1.1/DTD/svg11.dtd">
<svg width="496pt" height="139pt" viewBox="0 0 496 139" version="1.1" xmlns="http://www.w3.org/2000/svg">
<g id="#ffffffff">
</g>
<g id="#0081e7ff">
<path fill="#0081e7" opacity="1.00" d=" M 163.37 14.43 C 169.95 5.23 181.98 0.83 193.03 2.34 C 199.60 3.24 205.50 6.71 210.48 10.96 C 208.69 12.98 207.25 15.42 205.01 16.98 C 197.07 9.71 184.41 8.45 175.36 14.39 C 169.94 17.61 166.85 23.75 166.24 29.89 C 165.06 38.01 169.47 46.48 176.59 50.46 C 184.91 55.37 196.30 54.51 203.63 48.14 C 203.54 44.67 203.56 41.21 203.54 37.74 C 201.10 37.75 198.65 37.75 196.21 37.76 C 195.00 35.03 193.81 32.29 192.66 29.54 C 199.06 29.47 205.47 29.47 211.87 29.54 C 211.79 36.95 211.87 44.36 211.83 51.76 C 205.67 58.14 197.06 62.54 188.05 62.23 C 178.52 61.92 168.98 57.38 163.48 49.45 C 156.04 39.39 155.73 24.47 163.37 14.43 Z" />
<path fill="#0081e7" opacity="1.00" d=" M 237.09 3.43 C 247.75 0.05 259.99 3.20 267.94 11.01 C 266.22 13.06 264.51 15.12 262.82 17.20 C 258.14 13.83 252.96 10.54 246.97 10.56 C 242.15 10.06 236.70 11.77 234.20 16.19 C 232.03 19.22 233.49 24.07 237.15 25.13 C 244.93 27.72 253.57 25.55 261.24 28.68 C 264.86 30.08 268.26 32.81 269.37 36.66 C 270.94 41.88 270.98 48.02 267.65 52.59 C 263.64 58.23 256.65 60.68 250.08 61.72 C 239.40 63.48 228.45 58.70 221.43 50.68 C 223.31 48.66 225.28 46.73 227.26 44.81 C 231.39 49.23 236.67 53.04 242.87 53.58 C 248.32 53.96 254.34 53.33 258.72 49.75 C 262.90 46.76 262.92 39.41 258.42 36.70 C 255.00 34.60 250.81 35.03 246.97 34.81 C 241.14 34.60 234.84 34.52 229.75 31.29 C 224.56 28.14 222.83 21.19 224.54 15.61 C 226.58 9.95 231.24 5.11 237.09 3.43 Z" />
<path fill="#0081e7" opacity="1.00" d=" M 297.80 3.78 C 300.62 3.75 303.44 3.75 306.27 3.71 C 311.54 17.84 316.16 32.21 321.61 46.26 C 325.01 35.14 328.81 24.13 332.06 12.96 C 331.57 9.79 330.23 6.83 329.37 3.75 C 332.23 3.74 335.09 3.74 337.96 3.78 C 342.80 17.93 347.26 32.22 352.43 46.25 C 357.07 32.22 361.57 18.14 366.38 4.17 C 369.15 3.21 372.30 3.94 375.22 3.78 C 369.15 22.78 363.09 41.78 356.96 60.76 C 353.98 60.75 351.00 60.75 348.02 60.78 C 344.65 50.81 341.42 40.78 338.19 30.76 C 337.85 29.68 337.30 28.68 336.67 27.75 C 333.15 38.76 329.74 49.81 326.12 60.79 C 323.13 60.75 320.15 60.74 317.17 60.76 C 310.70 41.78 304.21 22.79 297.80 3.78 Z" />
<path fill="#0081e7" opacity="1.00" d=" M 386.29 3.90 C 399.67 3.51 413.07 3.94 426.46 3.68 C 426.59 6.41 426.63 9.15 426.68 11.89 C 416.02 12.14 405.37 11.93 394.71 12.00 C 394.71 17.76 394.71 23.51 394.71 29.27 C 402.00 25.93 410.22 27.73 417.95 27.21 C 418.00 30.07 418.01 32.93 417.96 35.79 C 410.23 36.21 401.91 34.35 394.69 37.90 C 394.73 42.76 394.71 47.62 394.70 52.48 C 406.43 52.49 418.16 52.56 429.90 52.44 C 430.00 55.21 430.01 57.99 429.96 60.77 C 415.42 60.72 400.88 60.79 386.34 60.73 C 386.33 41.79 386.44 22.84 386.29 3.90 Z" />
<path fill="#0081e7" opacity="1.00" d=" M 443.37 60.73 C 443.49 41.72 443.19 22.69 443.52 3.68 C 452.99 3.87 462.47 3.64 471.94 3.78 C 476.73 3.88 481.88 5.01 485.30 8.62 C 490.73 14.69 490.57 25.26 484.25 30.67 C 489.64 33.17 491.61 39.49 491.89 45.00 C 492.31 50.21 489.24 55.29 484.67 57.70 C 480.85 59.97 476.38 60.86 471.98 60.75 C 462.44 60.76 452.91 60.77 443.37 60.73 M 451.67 12.00 C 451.65 17.78 451.66 23.55 451.66 29.33 C 457.18 27.18 463.17 27.14 469.01 27.26 C 472.14 27.19 475.69 27.47 478.30 25.38 C 481.24 23.01 481.37 18.45 479.79 15.28 C 478.32 12.50 474.82 12.19 472.05 12.04 C 465.25 11.92 458.46 12.04 451.67 12.00 M 454.77 36.82 C 453.77 37.38 452.01 37.33 451.72 38.68 C 451.50 43.27 451.75 47.88 451.65 52.48 C 458.11 52.52 464.57 52.48 471.03 52.52 C 474.48 52.57 478.16 52.06 480.99 49.91 C 484.79 46.97 484.51 40.25 480.37 37.74 C 476.65 35.57 472.19 35.79 468.04 35.73 C 463.61 35.81 459.06 35.55 454.77 36.82 Z" />
<path fill="#0081e7" opacity="1.00" d=" M 5.89 23.22 C 46.24 18.83 86.60 14.54 126.94 10.15 C 128.43 10.09 130.26 9.57 131.19 11.12 C 131.81 12.65 131.22 14.33 131.13 15.90 C 127.54 41.92 124.14 67.96 120.50 93.96 C 120.46 96.24 117.94 96.88 116.08 96.75 C 105.99 96.73 95.90 96.80 85.81 96.70 C 72.55 106.84 59.28 116.96 46.03 127.11 C 43.82 128.90 41.51 130.58 38.97 131.87 C 38.10 130.78 36.06 129.82 36.83 128.08 C 38.25 121.34 40.29 114.73 41.68 107.98 C 35.43 107.95 29.17 108.11 22.92 107.95 C 20.76 108.12 19.66 105.96 19.39 104.14 C 14.03 78.36 8.48 52.61 3.11 26.84 C 2.45 24.99 3.98 23.10 5.89 23.22 Z" />
<path fill="#0081e7" opacity="1.00" d=" M 287.66 87.62 C 291.35 79.70 300.61 75.85 308.97 76.09 C 317.37 76.02 325.20 79.95 331.41 85.38 C 329.71 87.58 327.91 89.69 326.05 91.74 C 319.93 86.44 311.55 83.53 303.51 85.33 C 298.42 86.53 293.61 92.50 296.40 97.66 C 298.66 100.45 302.66 101.11 306.06 101.24 C 313.36 101.44 321.18 101.34 327.66 105.22 C 333.50 108.90 334.92 116.67 333.59 123.00 C 332.24 128.96 327.16 133.30 321.67 135.46 C 315.45 137.81 308.58 138.88 302.03 137.39 C 294.60 136.20 288.19 131.63 283.41 126.00 C 285.43 124.01 287.53 122.09 289.72 120.28 C 294.00 125.41 300.19 129.40 307.06 129.43 C 312.52 129.51 318.68 128.78 322.72 124.72 C 326.11 121.37 325.89 114.99 321.98 112.16 C 318.13 109.72 313.37 110.28 309.03 110.04 C 302.71 109.93 295.79 109.46 290.67 105.30 C 285.56 101.12 284.72 93.30 287.66 87.62 Z" />
<path fill="#0081e7" opacity="1.00" d=" M 374.67 88.70 C 382.20 78.73 395.84 73.81 407.98 77.06 C 413.85 78.06 418.78 81.55 423.21 85.34 C 421.51 87.63 419.67 89.81 417.80 91.97 C 412.50 87.07 405.22 84.04 397.94 85.01 C 389.00 85.70 380.54 92.11 378.24 100.91 C 377.28 104.89 376.73 109.17 377.96 113.16 C 380.60 122.69 390.26 129.52 400.06 129.44 C 405.87 129.80 411.42 127.33 416.10 124.06 C 416.06 120.38 416.08 116.70 416.07 113.02 C 413.49 113.02 410.91 112.99 408.33 112.90 C 407.21 110.09 406.00 107.33 404.78 104.57 C 411.35 104.38 417.94 104.61 424.52 104.43 C 424.75 112.14 424.62 119.86 424.59 127.58 C 418.39 133.84 409.98 138.40 401.00 138.27 C 389.95 138.43 378.67 132.73 373.16 122.99 C 366.95 112.58 367.17 98.41 374.67 88.70 Z" />
<path fill="#0081e7" opacity="1.00" d=" M 157.80 77.77 C 167.85 77.75 177.91 77.71 187.96 77.78 C 195.85 77.75 203.68 81.33 208.68 87.46 C 212.50 92.16 215.03 97.97 215.53 104.03 C 216.55 115.39 210.97 127.05 201.57 133.48 C 197.03 136.57 191.32 136.91 186.00 137.00 C 179.40 137.00 172.80 137.01 166.20 136.98 C 166.19 120.60 166.25 104.21 166.18 87.83 C 166.38 85.43 163.05 86.92 161.74 86.58 C 160.23 83.73 159.01 80.75 157.80 77.77 M 174.68 86.51 C 174.68 100.42 174.68 114.32 174.68 128.23 C 179.44 128.22 184.20 128.31 188.95 128.21 C 194.95 128.26 200.47 124.51 203.61 119.56 C 207.48 113.41 207.80 105.46 205.36 98.73 C 203.19 92.57 197.49 87.67 190.95 86.88 C 185.55 86.17 180.10 86.62 174.68 86.51 Z" />
<path fill="#0081e7" opacity="1.00" d=" M 229.17 77.77 C 243.06 77.78 256.94 77.64 270.83 77.84 C 270.77 80.71 270.77 83.57 270.83 86.44 C 259.90 86.54 248.98 86.56 238.06 86.42 C 237.56 92.36 237.93 98.34 237.81 104.30 C 245.39 100.91 253.88 102.28 261.92 102.01 C 261.91 105.01 261.91 108.00 261.92 110.99 C 253.92 111.46 245.43 109.68 237.88 113.04 C 237.78 118.11 237.83 123.17 237.83 128.24 C 249.96 128.25 262.09 128.27 274.23 128.23 C 274.27 131.15 274.27 134.08 274.26 137.00 C 259.23 136.98 244.19 137.05 229.16 136.97 C 229.21 117.24 229.18 97.50 229.17 77.77 Z" />
<path fill="#0081e7" opacity="1.00" d=" M 346.77 77.75 C 349.59 77.75 352.41 77.75 355.23 77.75 C 355.24 97.50 355.24 117.25 355.23 137.00 C 352.41 137.00 349.58 137.00 346.76 137.00 C 346.76 117.25 346.74 97.50 346.77 77.75 Z" />
<path fill="#0081e7" opacity="1.00" d=" M 434.30 77.79 C 437.91 77.74 441.53 77.76 445.15 77.69 C 457.99 92.53 470.22 107.91 483.18 122.65 C 483.32 107.72 483.27 92.78 483.21 77.85 C 486.13 77.74 489.06 77.71 491.99 77.76 C 492.02 97.50 491.97 117.25 492.00 137.00 C 489.08 137.01 486.16 137.01 483.25 136.93 C 472.16 123.39 460.97 109.93 449.66 96.57 C 449.29 110.04 449.62 123.53 449.50 137.00 C 446.66 137.00 443.83 137.00 441.00 137.00 C 441.03 119.97 440.99 102.95 440.99 85.93 C 438.72 83.25 436.44 80.58 434.30 77.79 Z" />
</g>
</svg>
