<?xml version="1.0" encoding="UTF-8" ?>
<!DOCTYPE svg PUBLIC "-//W3C//DTD SVG 1.1//EN" "http://www.w3.org/Graphics/SVG/1.1/DTD/svg11.dtd">
<svg width="624pt" height="456pt" viewBox="0 0 624 456" version="1.1" xmlns="http://www.w3.org/2000/svg">
<g id="#271c24ff">
</g>
<g id="#8c8187ff">
<path fill="#8c8187" opacity="1.00" d=" M 342.03 30.34 C 356.19 30.08 370.24 33.73 382.85 40.06 L 382.46 41.40 C 379.34 40.30 376.41 38.76 373.36 37.50 C 360.20 32.62 346.01 31.01 332.04 31.50 C 327.43 31.48 322.89 32.61 318.28 32.56 L 315.87 31.83 C 324.42 29.78 333.31 30.44 342.03 30.34 Z" />
</g>
<g id="#f3e7dfff">
<path fill="#f3e7df" opacity="1.00" d=" M 306.29 33.60 C 310.34 33.83 314.24 32.39 318.28 32.56 C 322.89 32.61 327.43 31.48 332.04 31.50 C 346.01 31.01 360.20 32.62 373.36 37.50 C 373.40 38.12 373.50 39.35 373.54 39.96 C 369.21 39.12 364.88 38.22 360.58 37.25 C 354.66 35.89 348.55 35.74 342.60 34.57 C 338.59 33.80 334.45 33.71 330.45 34.59 C 323.40 36.21 316.10 36.05 309.04 37.60 C 298.59 39.21 288.93 43.65 278.89 46.72 C 271.94 49.07 265.63 52.90 258.97 55.92 C 253.30 58.45 248.27 62.11 242.84 65.05 C 236.73 68.35 231.41 72.86 226.15 77.34 C 217.66 85.65 208.85 93.66 201.34 102.90 C 201.37 101.78 201.41 100.66 201.47 99.54 C 201.25 98.08 201.88 97.28 203.37 97.12 C 203.37 96.70 203.37 95.87 203.37 95.45 L 204.72 95.53 C 204.66 95.04 204.54 94.05 204.48 93.56 C 205.01 93.53 206.07 93.46 206.61 93.43 C 206.55 92.96 206.43 92.03 206.37 91.56 L 207.65 91.61 L 207.48 90.33 C 207.97 90.38 208.95 90.47 209.43 90.52 C 209.39 89.98 209.31 88.91 209.26 88.37 L 210.61 88.73 L 210.40 87.42 L 211.72 87.50 C 211.66 87.04 211.52 86.11 211.45 85.65 C 211.98 85.65 213.06 85.64 213.60 85.63 C 213.59 85.13 213.57 84.13 213.56 83.64 C 214.07 83.63 215.10 83.63 215.61 83.63 C 215.61 83.12 215.60 82.09 215.59 81.58 C 216.10 81.59 217.12 81.62 217.63 81.63 C 217.63 81.14 217.63 80.17 217.63 79.69 C 218.32 79.60 219.69 79.41 220.38 79.32 C 220.37 78.85 220.36 77.91 220.36 77.45 C 220.90 77.43 222.00 77.39 222.54 77.37 C 222.50 76.97 222.42 76.16 222.37 75.76 C 223.44 75.26 224.51 74.76 225.59 74.26 C 225.59 73.85 225.60 73.02 225.60 72.61 C 226.10 72.63 227.10 72.66 227.59 72.68 L 227.37 71.41 L 228.66 71.70 L 228.50 70.39 C 229.01 70.43 230.04 70.51 230.55 70.55 C 230.57 70.14 230.61 69.32 230.63 68.91 C 232.88 68.17 234.57 66.41 236.57 65.22 L 236.46 64.60 C 237.51 64.23 238.55 63.87 239.60 63.50 L 239.50 62.46 L 240.72 62.51 L 240.60 61.38 C 241.07 61.48 242.01 61.70 242.48 61.81 L 242.52 60.28 C 242.99 60.36 243.92 60.52 244.39 60.60 L 244.48 59.27 C 244.99 59.34 246.00 59.50 246.51 59.57 C 246.50 59.09 246.48 58.12 246.46 57.63 C 247.23 57.58 248.77 57.49 249.54 57.44 L 249.37 56.22 L 250.70 56.67 L 250.47 55.20 C 250.95 55.32 251.91 55.57 252.39 55.69 L 252.61 54.24 C 253.08 54.37 254.01 54.62 254.48 54.75 L 254.29 53.58 C 255.46 53.19 256.64 52.80 257.81 52.41 L 257.45 51.24 C 257.94 51.37 258.92 51.63 259.41 51.76 L 259.59 50.31 C 260.07 50.43 261.03 50.69 261.52 50.81 L 261.55 49.34 C 262.02 49.42 262.96 49.60 263.44 49.69 L 263.58 48.30 C 264.05 48.42 264.99 48.67 265.46 48.79 L 265.65 47.39 C 266.10 47.47 267.00 47.65 267.45 47.73 L 267.44 46.51 C 268.22 46.50 269.77 46.47 270.55 46.45 L 270.54 45.22 C 271.01 45.33 271.94 45.56 272.41 45.68 L 272.55 44.15 C 273.02 44.30 273.96 44.62 274.42 44.78 L 274.47 43.57 C 275.24 43.54 276.79 43.48 277.56 43.45 L 277.53 42.01 C 277.99 42.22 278.93 42.64 279.40 42.85 L 279.48 41.57 C 280.28 41.55 281.88 41.52 282.67 41.51 L 282.28 40.42 C 283.07 40.43 284.66 40.45 285.45 40.46 L 285.50 39.48 C 286.30 39.51 287.90 39.57 288.70 39.60 L 288.38 38.51 C 289.16 38.50 290.71 38.48 291.49 38.48 L 291.42 37.51 C 292.83 37.50 294.25 37.49 295.67 37.49 L 295.35 36.44 C 296.17 36.47 297.81 36.51 298.63 36.53 L 298.34 35.66 C 301.18 35.45 303.95 34.79 306.76 34.38 L 306.29 33.60 Z" />
</g>
<g id="#f0e0ceff">
<path fill="#f0e0ce" opacity="1.00" d=" M 330.45 34.59 C 334.45 33.71 338.59 33.80 342.60 34.57 C 348.55 35.74 354.66 35.89 360.58 37.25 C 364.88 38.22 369.21 39.12 373.54 39.96 C 373.50 39.35 373.40 38.12 373.36 37.50 C 376.41 38.76 379.34 40.30 382.46 41.40 C 383.84 41.86 385.24 42.29 386.64 42.73 C 386.56 43.12 386.41 43.91 386.33 44.30 C 387.68 44.58 389.04 44.86 390.40 45.14 C 381.11 46.14 371.70 45.16 362.37 45.57 L 362.60 46.39 C 358.84 46.38 355.09 46.54 351.33 46.57 L 351.70 47.52 C 350.25 47.51 348.80 47.50 347.35 47.49 C 347.42 47.74 347.56 48.23 347.63 48.47 C 345.53 48.46 343.43 48.48 341.34 48.48 L 341.60 49.47 C 340.17 49.48 338.74 49.48 337.32 49.48 L 337.69 50.51 C 336.24 50.51 334.80 50.50 333.37 50.49 L 333.59 51.47 C 332.16 51.48 330.74 51.49 329.32 51.50 L 329.72 52.61 C 328.90 52.58 327.27 52.50 326.45 52.46 L 326.49 53.23 C 324.50 53.71 322.45 53.98 320.54 54.74 L 320.57 55.50 C 319.83 55.50 318.34 55.50 317.60 55.50 C 316.86 56.15 316.12 56.81 315.38 57.47 C 314.62 57.48 313.09 57.50 312.33 57.51 L 312.45 58.84 C 311.98 58.67 311.03 58.31 310.56 58.14 L 310.59 59.50 C 309.80 59.51 308.22 59.53 307.43 59.54 L 307.52 60.85 C 307.05 60.72 306.09 60.46 305.61 60.32 L 305.46 61.93 C 304.87 61.76 303.69 61.41 303.09 61.23 C 297.89 58.67 292.17 59.58 286.85 61.21 C 287.06 60.58 287.46 59.32 287.66 58.68 C 289.89 58.17 292.12 57.66 294.36 57.16 C 294.51 56.61 294.82 55.52 294.97 54.98 C 289.39 54.24 284.85 57.60 280.67 60.76 C 279.91 60.13 279.16 59.49 278.42 58.86 C 281.83 55.89 287.23 55.70 289.09 51.04 C 286.13 48.71 282.67 47.08 278.89 46.72 C 288.93 43.65 298.59 39.21 309.04 37.60 C 316.10 36.05 323.40 36.21 330.45 34.59 Z" />
</g>
<g id="#eddac3ff">
<path fill="#eddac3" opacity="1.00" d=" M 258.97 55.92 C 265.63 52.90 271.94 49.07 278.89 46.72 C 282.67 47.08 286.13 48.71 289.09 51.04 C 287.23 55.70 281.83 55.89 278.42 58.86 C 279.16 59.49 279.91 60.13 280.67 60.76 C 284.85 57.60 289.39 54.24 294.97 54.98 C 294.82 55.52 294.51 56.61 294.36 57.16 C 292.12 57.66 289.89 58.17 287.66 58.68 C 287.46 59.32 287.06 60.58 286.85 61.21 C 292.17 59.58 297.89 58.67 303.09 61.23 L 304.15 62.32 C 303.46 62.36 302.09 62.44 301.41 62.48 L 301.53 63.85 C 301.04 63.71 300.07 63.43 299.59 63.29 L 299.44 64.78 C 298.96 64.64 298.01 64.38 297.53 64.25 L 297.59 65.51 L 295.95 65.75 C 295.71 65.98 295.23 66.43 295.00 66.66 L 293.60 66.23 C 293.61 66.61 293.63 67.39 293.64 67.77 L 292.34 67.39 L 292.44 68.85 C 291.96 68.66 290.99 68.29 290.51 68.10 L 290.74 69.59 L 289.41 69.28 L 289.55 70.45 C 288.77 70.50 287.21 70.60 286.44 70.65 C 286.47 71.08 286.53 71.94 286.56 72.37 C 285.79 72.45 284.26 72.59 283.49 72.66 C 283.49 73.13 283.48 74.07 283.48 74.54 C 282.99 74.48 282.00 74.37 281.51 74.31 L 281.37 75.70 C 280.90 75.57 279.95 75.32 279.48 75.19 L 279.81 76.61 L 278.47 76.42 L 278.47 77.67 C 277.99 77.60 277.02 77.46 276.54 77.39 C 276.51 77.82 276.46 78.66 276.43 79.08 C 274.14 79.75 272.42 81.50 270.53 82.87 L 270.53 83.75 C 270.02 83.69 269.00 83.56 268.49 83.50 C 268.51 83.93 268.54 84.80 268.55 85.23 C 267.49 85.75 266.43 86.25 265.36 86.74 C 265.40 87.17 265.49 88.03 265.53 88.45 C 265.01 88.42 263.98 88.34 263.46 88.30 L 263.56 89.64 C 263.08 89.63 262.11 89.62 261.63 89.62 C 261.61 90.00 261.56 90.75 261.54 91.13 C 259.75 92.18 258.50 93.90 256.73 94.97 C 256.67 95.27 256.56 95.85 256.50 96.15 L 255.39 96.60 C 253.01 97.77 251.66 100.22 249.92 102.10 C 247.86 99.18 246.28 95.97 245.00 92.64 C 244.25 95.36 243.50 98.08 242.83 100.82 C 241.84 99.00 241.06 97.01 239.62 95.51 C 237.23 93.52 234.32 92.19 232.24 89.84 C 229.94 87.26 227.61 84.70 224.97 82.46 C 225.71 81.63 226.45 80.79 227.20 79.97 C 226.85 79.09 226.50 78.22 226.15 77.34 C 231.41 72.86 236.73 68.35 242.84 65.05 C 248.27 62.11 253.30 58.45 258.97 55.92 Z" />
</g>
<g id="#e8d1b5ff">
<path fill="#e8d1b5" opacity="1.00" d=" M 201.34 102.90 C 208.85 93.66 217.66 85.65 226.15 77.34 C 226.50 78.22 226.85 79.09 227.20 79.97 C 226.45 80.79 225.71 81.63 224.97 82.46 C 227.61 84.70 229.94 87.26 232.24 89.84 C 234.32 92.19 237.23 93.52 239.62 95.51 C 241.06 97.01 241.84 99.00 242.83 100.82 C 243.50 98.08 244.25 95.36 245.00 92.64 C 246.28 95.97 247.86 99.18 249.92 102.10 C 234.06 120.39 222.11 142.57 218.03 166.58 C 217.06 173.05 217.35 179.61 217.29 186.13 C 215.21 189.48 215.16 193.47 215.89 197.23 C 215.43 194.91 214.43 192.76 212.91 190.95 C 211.02 188.70 211.90 185.50 211.56 182.81 C 209.27 186.05 208.67 190.00 208.39 193.87 C 207.96 193.73 207.11 193.46 206.69 193.32 C 206.44 189.38 206.11 185.45 205.72 181.52 C 203.07 181.09 200.38 180.78 197.80 179.98 C 194.15 178.83 191.35 175.95 187.74 174.75 C 183.67 174.40 179.39 175.44 175.58 173.46 C 177.32 171.64 179.58 170.15 180.74 167.86 C 180.66 165.98 179.86 164.24 179.31 162.47 C 176.57 165.27 172.81 167.88 172.32 172.07 C 171.90 176.15 171.80 180.31 170.54 184.26 C 169.64 177.20 170.19 170.08 170.52 163.00 C 170.91 160.64 171.22 158.26 171.83 155.94 C 172.24 154.78 172.51 153.59 172.65 152.37 L 173.60 152.68 C 173.57 151.88 173.51 150.27 173.48 149.47 L 174.75 149.35 C 174.55 148.87 174.16 147.91 173.96 147.43 L 175.38 147.60 C 175.45 146.22 175.53 144.84 175.60 143.47 L 176.92 143.39 C 176.70 142.93 176.26 142.01 176.04 141.55 L 177.33 141.60 C 177.75 139.86 178.22 138.15 178.65 136.41 L 179.80 136.49 C 179.68 136.03 179.42 135.10 179.29 134.63 L 180.30 134.49 C 180.69 133.12 181.13 131.76 181.51 130.38 L 182.80 130.43 C 182.65 129.98 182.35 129.07 182.20 128.62 L 183.57 128.36 C 183.50 127.89 183.37 126.95 183.30 126.48 L 184.72 126.45 C 184.61 125.98 184.39 125.03 184.27 124.56 L 185.72 124.40 C 185.61 123.94 185.38 123.01 185.26 122.54 L 186.40 122.58 C 186.88 120.76 187.78 119.08 188.74 117.47 L 189.48 117.46 C 189.51 116.71 189.57 115.21 189.60 114.47 C 190.03 114.50 190.90 114.56 191.33 114.59 C 191.40 113.80 191.53 112.21 191.60 111.42 C 192.04 111.43 192.92 111.45 193.36 111.46 C 193.41 110.73 193.51 109.28 193.56 108.55 L 194.64 108.51 L 194.45 107.25 L 195.88 107.53 C 195.73 107.06 195.42 106.12 195.27 105.64 L 196.39 105.60 C 196.38 104.22 197.05 103.42 198.40 103.20 C 198.38 102.77 198.35 101.91 198.33 101.47 L 199.72 101.55 C 199.71 101.04 199.68 100.00 199.67 99.49 C 200.12 99.50 201.02 99.52 201.47 99.54 C 201.41 100.66 201.37 101.78 201.34 102.90 Z" />
</g>
<g id="#a39b9cff">
<path fill="#a39b9c" opacity="1.00" d=" M 333.93 80.77 C 340.15 79.07 346.66 79.42 353.04 79.58 C 359.91 80.96 368.48 81.92 372.01 88.95 C 375.87 94.72 374.77 102.20 371.84 108.11 L 371.41 106.88 C 371.99 101.65 374.15 96.11 371.46 91.06 C 369.80 85.93 364.47 83.75 359.73 82.43 C 351.52 80.51 343.07 81.81 334.76 81.61 C 334.55 81.40 334.14 80.98 333.93 80.77 Z" />
</g>
<g id="#f3e8dfff">
<path fill="#f3e8df" opacity="1.00" d=" M 324.29 82.49 C 325.70 82.47 327.11 82.45 328.52 82.43 L 328.44 81.52 C 330.54 81.54 332.65 81.52 334.76 81.61 C 343.07 81.81 351.52 80.51 359.73 82.43 C 364.47 83.75 369.80 85.93 371.46 91.06 C 374.15 96.11 371.99 101.65 371.41 106.88 L 371.46 108.65 L 370.28 108.50 C 370.38 108.98 370.58 109.95 370.69 110.43 L 369.15 110.62 C 369.34 111.08 369.73 112.01 369.92 112.47 L 368.72 112.33 C 368.17 113.66 367.60 114.98 367.03 116.30 L 366.07 115.34 C 364.35 113.01 366.30 110.40 367.31 108.23 C 370.04 103.66 369.55 98.10 369.26 93.00 C 369.08 88.88 364.19 87.71 361.01 86.58 C 348.39 82.16 334.91 84.84 322.18 87.25 C 318.35 88.09 314.68 89.53 311.01 90.88 C 310.22 90.32 309.44 89.76 308.66 89.18 C 308.52 88.81 308.22 88.06 308.08 87.69 C 308.98 87.64 310.79 87.54 311.69 87.49 L 311.35 86.59 C 313.45 86.09 315.57 85.68 317.70 85.30 L 317.23 84.42 C 318.03 84.42 319.61 84.43 320.41 84.44 L 320.49 83.52 C 321.90 83.51 323.32 83.52 324.75 83.52 L 324.29 82.49 Z" />
</g>
<g id="#eddac4ff">
<path fill="#eddac4" opacity="1.00" d=" M 322.18 87.25 C 334.91 84.84 348.39 82.16 361.01 86.58 C 364.19 87.71 369.08 88.88 369.26 93.00 C 369.55 98.10 370.04 103.66 367.31 108.23 C 366.30 110.40 364.35 113.01 366.07 115.34 C 366.40 115.91 367.05 117.05 367.37 117.62 L 365.51 117.25 C 365.51 117.82 365.50 118.94 365.50 119.50 L 364.27 119.51 C 364.34 119.98 364.48 120.93 364.55 121.41 C 364.04 121.44 363.03 121.50 362.53 121.53 C 362.59 122.04 362.72 123.05 362.78 123.56 L 361.32 123.53 C 361.40 124.00 361.54 124.94 361.62 125.41 L 360.18 125.60 C 360.32 126.01 360.60 126.83 360.75 127.24 C 359.61 127.71 358.50 128.22 357.41 128.79 C 357.42 129.13 357.43 129.80 357.43 130.14 C 351.69 130.11 345.97 130.51 340.24 130.51 L 340.73 131.46 C 334.77 131.11 328.95 132.33 323.04 132.66 C 323.52 130.90 322.92 128.02 325.60 128.24 C 325.55 127.83 325.44 127.00 325.38 126.58 L 326.59 126.54 L 326.44 125.26 L 327.79 125.60 C 327.71 125.09 327.54 124.06 327.46 123.55 C 327.99 123.52 329.04 123.46 329.57 123.43 C 329.50 122.95 329.35 121.99 329.28 121.51 L 330.67 121.47 C 330.61 120.98 330.48 120.00 330.42 119.51 C 330.90 119.50 331.85 119.48 332.33 119.47 C 332.40 118.70 332.54 117.17 332.61 116.41 C 333.05 116.45 333.92 116.53 334.35 116.58 C 334.40 115.80 334.49 114.25 334.53 113.47 L 335.67 113.57 L 335.45 112.26 L 336.96 112.50 C 336.76 112.03 336.35 111.09 336.15 110.62 L 337.21 110.53 C 338.38 108.65 339.27 106.59 339.71 104.41 L 340.96 104.48 C 340.76 104.01 340.36 103.08 340.17 102.61 L 341.45 102.60 C 341.48 100.54 341.53 98.48 341.57 96.42 L 340.24 96.71 L 340.71 95.44 C 336.58 95.22 332.45 95.35 328.33 95.51 L 328.67 96.53 C 327.99 96.56 326.63 96.60 325.96 96.62 C 324.86 97.23 323.68 97.58 322.43 97.68 L 322.54 98.85 C 322.07 98.73 321.14 98.48 320.67 98.35 L 320.42 99.73 C 319.93 99.60 318.97 99.35 318.48 99.22 L 318.53 100.71 C 318.04 100.62 317.06 100.45 316.58 100.37 L 316.39 101.84 C 315.91 101.66 314.96 101.31 314.48 101.13 L 314.77 102.58 L 313.36 102.36 L 313.41 103.72 C 313.04 103.63 312.30 103.45 311.93 103.36 C 310.53 103.90 310.09 105.42 309.01 106.33 C 308.62 106.33 307.86 106.33 307.48 106.33 L 307.58 107.69 C 307.07 107.67 306.06 107.64 305.55 107.62 C 305.56 108.10 305.57 109.08 305.58 109.56 C 305.17 109.56 304.35 109.57 303.94 109.57 C 303.30 110.55 302.75 111.58 302.30 112.67 C 301.88 112.62 301.05 112.51 300.64 112.46 C 300.62 112.98 300.59 114.03 300.58 114.55 C 300.08 114.55 299.09 114.55 298.59 114.55 C 298.62 115.05 298.68 116.05 298.71 116.55 L 297.23 116.51 C 297.30 116.92 297.45 117.73 297.52 118.13 C 296.50 118.71 295.49 119.30 294.49 119.89 C 294.57 120.29 294.73 121.08 294.81 121.48 L 293.36 121.50 C 293.39 121.98 293.45 122.93 293.48 123.41 C 293.01 123.47 292.08 123.57 291.61 123.63 C 291.64 124.11 291.69 125.07 291.72 125.55 L 290.85 125.57 C 290.71 125.87 290.43 126.46 290.30 126.76 C 287.62 130.66 287.29 136.12 289.90 140.14 C 292.21 144.08 296.26 146.52 300.18 148.64 C 306.66 152.12 313.78 154.10 320.76 156.32 C 319.06 156.79 317.40 157.35 315.71 157.82 C 310.05 157.23 304.66 155.21 299.88 152.17 C 296.56 149.81 292.70 148.60 288.77 147.73 C 285.82 145.51 283.13 142.89 279.61 141.53 C 279.65 140.95 279.69 140.37 279.73 139.79 C 281.62 140.44 283.52 141.09 285.41 141.73 C 285.50 138.15 285.12 134.58 284.22 131.13 C 281.85 133.11 279.72 135.34 277.79 137.74 C 276.57 135.65 275.32 133.58 274.07 131.51 C 271.43 133.82 269.06 136.41 266.72 139.02 C 266.29 134.26 271.00 131.61 272.57 127.59 C 272.56 123.76 271.84 119.96 272.14 116.13 C 266.95 121.21 262.84 127.25 258.27 132.87 C 258.05 131.08 257.82 129.29 257.60 127.50 L 257.48 126.51 C 257.96 126.51 258.93 126.53 259.41 126.53 C 259.48 125.78 259.61 124.28 259.67 123.53 C 260.15 123.55 261.11 123.60 261.59 123.62 C 261.57 123.09 261.53 122.01 261.51 121.48 C 262.02 121.47 263.05 121.45 263.56 121.44 C 263.50 120.94 263.38 119.93 263.32 119.42 L 264.69 119.63 L 264.36 118.34 L 265.76 118.70 L 265.38 117.25 L 266.71 117.72 L 266.29 116.33 L 267.70 116.58 C 267.66 116.12 267.58 115.19 267.54 114.73 C 268.27 114.62 269.74 114.41 270.47 114.30 C 270.44 113.85 270.39 112.93 270.37 112.47 C 270.92 112.46 272.01 112.44 272.55 112.43 C 272.53 111.93 272.49 110.95 272.46 110.45 C 272.93 110.47 273.86 110.51 274.33 110.53 C 274.40 109.13 275.13 108.40 276.51 108.36 L 276.49 107.37 L 277.82 107.63 L 277.43 106.23 C 277.94 106.33 278.96 106.51 279.47 106.61 C 279.52 106.08 279.60 105.03 279.65 104.51 C 280.11 104.56 281.05 104.65 281.51 104.70 L 281.53 103.36 C 282.04 103.43 283.05 103.57 283.56 103.63 C 283.56 103.14 283.58 102.15 283.58 101.65 C 284.34 101.59 285.86 101.47 286.61 101.41 C 286.58 101.01 286.51 100.23 286.48 99.83 C 287.87 99.40 289.23 98.88 290.61 98.40 L 290.44 97.20 C 290.94 97.29 291.94 97.46 292.44 97.54 C 292.48 97.02 292.58 95.97 292.62 95.44 C 293.09 95.52 294.01 95.67 294.47 95.74 C 294.52 95.37 294.62 94.63 294.67 94.27 L 296.45 94.88 L 296.54 93.31 C 297.00 93.38 297.92 93.53 298.38 93.61 L 298.59 92.17 C 299.05 92.32 299.97 92.61 300.43 92.76 L 300.31 91.54 C 301.69 91.13 303.04 90.64 304.42 90.22 L 304.54 89.31 C 305.02 89.38 305.96 89.51 306.44 89.58 L 306.74 87.86 L 308.66 89.18 C 309.44 89.76 310.22 90.32 311.01 90.88 C 314.68 89.53 318.35 88.09 322.18 87.25 Z" />
</g>
<g id="#7b6d69ff">
<path fill="#7b6d69" opacity="1.00" d=" M 249.92 102.10 C 251.66 100.22 253.01 97.77 255.39 96.60 L 255.87 97.66 C 235.44 119.15 220.44 147.01 218.44 176.96 C 218.21 190.94 220.92 205.85 230.08 216.88 C 234.55 222.60 241.15 226.19 248.01 228.22 C 253.73 229.49 259.63 228.10 265.38 229.03 C 261.60 231.10 257.16 230.75 253.01 230.51 C 242.25 229.67 232.41 223.18 226.46 214.33 C 220.57 206.17 217.90 196.06 217.29 186.13 C 217.35 179.61 217.06 173.05 218.03 166.58 C 222.11 142.57 234.06 120.39 249.92 102.10 Z" />
</g>
<g id="#e9d2b8ff">
<path fill="#e9d2b8" opacity="1.00" d=" M 258.27 132.87 C 262.84 127.25 266.95 121.21 272.14 116.13 C 271.84 119.96 272.56 123.76 272.57 127.59 C 271.00 131.61 266.29 134.26 266.72 139.02 C 269.06 136.41 271.43 133.82 274.07 131.51 C 275.32 133.58 276.57 135.65 277.79 137.74 C 279.72 135.34 281.85 133.11 284.22 131.13 C 285.12 134.58 285.50 138.15 285.41 141.73 C 283.52 141.09 281.62 140.44 279.73 139.79 C 279.69 140.37 279.65 140.95 279.61 141.53 C 283.13 142.89 285.82 145.51 288.77 147.73 C 292.70 148.60 296.56 149.81 299.88 152.17 C 304.66 155.21 310.05 157.23 315.71 157.82 C 325.79 160.68 335.94 163.31 346.20 165.49 C 353.19 166.67 360.18 167.84 367.03 169.68 C 375.40 171.96 384.06 173.36 392.04 176.87 C 396.27 178.72 400.65 180.19 404.90 182.01 C 416.20 187.51 426.95 194.27 436.25 202.77 C 441.12 207.69 445.01 213.46 449.20 218.94 C 453.26 224.03 454.58 230.56 456.89 236.50 C 455.84 239.17 454.78 241.85 453.78 244.54 C 453.07 242.58 452.48 240.52 451.32 238.76 C 447.15 236.93 442.43 237.76 438.10 236.63 C 433.77 233.83 429.73 230.57 425.41 227.75 C 422.51 225.85 418.88 226.25 415.59 226.03 C 416.81 228.83 419.16 231.68 418.16 234.92 C 417.87 236.67 416.57 237.95 415.51 239.28 C 414.17 236.92 412.64 234.65 410.52 232.91 C 409.56 234.63 408.63 236.36 407.71 238.10 C 402.08 226.09 391.02 217.90 379.69 211.67 C 375.77 208.03 370.55 206.42 365.60 204.72 C 358.50 202.56 351.42 200.28 344.18 198.62 C 338.86 197.44 333.62 195.53 328.10 195.87 C 325.78 195.70 323.56 195.08 321.47 194.09 C 320.13 193.72 318.78 193.46 317.43 193.20 C 313.55 191.82 309.47 191.24 305.43 190.55 C 293.11 187.97 280.68 185.20 269.19 179.91 C 261.43 175.96 254.45 169.35 252.20 160.69 C 250.26 155.16 252.01 149.21 250.64 143.62 L 250.43 142.49 L 251.40 142.55 C 251.43 141.17 251.47 139.80 251.50 138.42 L 252.94 138.50 C 252.76 138.03 252.39 137.10 252.21 136.63 L 253.20 136.43 C 253.76 133.98 255.38 131.94 255.85 129.47 C 256.20 129.50 256.91 129.56 257.27 129.59 C 257.35 129.07 257.52 128.02 257.60 127.50 C 257.82 129.29 258.05 131.08 258.27 132.87 Z" />
</g>
<g id="#ecd8c1ff">
<path fill="#ecd8c1" opacity="1.00" d=" M 399.26 123.62 C 402.69 123.59 406.13 123.49 409.57 123.44 C 409.55 124.21 409.51 125.75 409.48 126.53 L 408.71 126.61 C 408.26 128.22 407.77 129.82 407.30 131.43 L 406.72 131.60 C 406.23 133.23 405.80 134.88 405.31 136.52 L 404.79 136.33 L 404.45 136.94 C 400.45 144.45 397.96 152.67 394.68 160.51 C 393.12 164.46 391.45 168.39 390.59 172.57 C 385.72 169.17 379.67 168.68 374.13 167.01 C 367.37 165.06 360.11 165.17 353.64 162.20 C 355.83 153.88 363.48 147.11 362.33 138.01 C 362.35 136.65 362.49 135.29 362.73 133.95 C 363.27 132.82 363.58 131.63 363.65 130.38 L 364.56 130.68 C 364.58 129.90 364.62 128.36 364.64 127.59 C 366.66 127.52 368.68 127.46 370.70 127.45 L 370.34 126.57 C 374.26 126.77 378.12 126.13 381.98 125.61 C 387.79 125.45 393.60 125.26 399.42 125.19 C 399.38 124.80 399.30 124.01 399.26 123.62 Z" />
</g>
<g id="#776b6aff">
<path fill="#776b6a" opacity="1.00" d=" M 289.90 140.14 C 287.29 136.12 287.62 130.66 290.30 126.76 C 291.05 130.28 288.65 133.80 290.20 137.23 C 291.68 142.87 297.44 145.44 302.10 148.04 C 312.23 152.78 323.19 155.39 334.00 158.07 C 338.97 158.93 343.78 160.74 348.87 160.80 C 352.18 154.61 356.12 148.72 358.53 142.09 C 358.93 140.82 359.92 139.90 360.91 139.06 C 360.41 143.24 358.00 146.77 356.26 150.49 C 354.22 154.76 351.74 158.80 349.21 162.79 C 339.55 161.50 330.19 158.64 320.76 156.32 C 313.78 154.10 306.66 152.12 300.18 148.64 C 296.26 146.52 292.21 144.08 289.90 140.14 Z" />
</g>
<g id="#f9ecdbff">
<path fill="#f9ecdb" opacity="1.00" d=" M 361.76 135.17 L 362.33 138.01 C 363.48 147.11 355.83 153.88 353.64 162.20 C 360.11 165.17 367.37 165.06 374.13 167.01 C 379.67 168.68 385.72 169.17 390.59 172.57 C 395.45 175.21 400.82 176.72 405.77 179.19 C 424.10 187.87 441.30 200.55 451.74 218.27 C 460.25 232.02 462.42 249.04 458.82 264.70 C 458.23 255.30 458.20 245.85 456.89 236.50 C 454.58 230.56 453.26 224.03 449.20 218.94 C 445.01 213.46 441.12 207.69 436.25 202.77 C 426.95 194.27 416.20 187.51 404.90 182.01 C 400.65 180.19 396.27 178.72 392.04 176.87 C 384.06 173.36 375.40 171.96 367.03 169.68 C 360.18 167.84 353.19 166.67 346.20 165.49 C 335.94 163.31 325.79 160.68 315.71 157.82 C 317.40 157.35 319.06 156.79 320.76 156.32 C 330.19 158.64 339.55 161.50 349.21 162.79 C 351.74 158.80 354.22 154.76 356.26 150.49 C 358.00 146.77 360.41 143.24 360.91 139.06 L 361.37 139.41 C 361.47 138.35 361.66 136.23 361.76 135.17 Z" />
</g>
<g id="#897c7aff">
<path fill="#897c7a" opacity="1.00" d=" M 394.68 160.51 C 397.96 152.67 400.45 144.45 404.45 136.94 C 404.71 138.42 404.55 139.85 403.98 141.23 C 400.05 151.14 396.15 161.05 392.21 170.95 C 392.64 172.24 394.05 172.55 395.15 173.06 C 414.95 180.55 433.71 192.18 447.08 208.83 C 458.83 223.60 465.55 243.49 461.01 262.24 C 459.29 271.06 455.31 279.26 450.58 286.83 C 449.25 288.85 448.06 291.13 445.79 292.24 C 447.36 288.21 450.24 284.89 452.21 281.07 C 454.97 275.88 457.59 270.48 458.82 264.70 C 462.42 249.04 460.25 232.02 451.74 218.27 C 441.30 200.55 424.10 187.87 405.77 179.19 C 400.82 176.72 395.45 175.21 390.59 172.57 C 391.45 168.39 393.12 164.46 394.68 160.51 Z" />
</g>
<g id="#938074ff">
<path fill="#938074" opacity="1.00" d=" M 249.64 145.33 C 249.89 144.90 250.39 144.04 250.64 143.62 C 252.01 149.21 250.26 155.16 252.20 160.69 C 254.45 169.35 261.43 175.96 269.19 179.91 C 280.68 185.20 293.11 187.97 305.43 190.55 C 309.47 191.24 313.55 191.82 317.43 193.20 C 313.20 192.88 309.01 192.20 304.79 191.80 C 296.41 190.36 288.06 188.55 279.97 185.86 C 272.24 183.45 264.61 179.96 258.61 174.42 C 250.89 167.04 248.23 155.67 249.64 145.33 Z" />
</g>
<g id="#e5c8a8ff">
<path fill="#e5c8a8" opacity="1.00" d=" M 169.75 160.92 L 170.52 163.00 C 170.19 170.08 169.64 177.20 170.54 184.26 C 171.80 180.31 171.90 176.15 172.32 172.07 C 172.81 167.88 176.57 165.27 179.31 162.47 C 179.86 164.24 180.66 165.98 180.74 167.86 C 179.58 170.15 177.32 171.64 175.58 173.46 C 179.39 175.44 183.67 174.40 187.74 174.75 C 191.35 175.95 194.15 178.83 197.80 179.98 C 200.38 180.78 203.07 181.09 205.72 181.52 C 206.11 185.45 206.44 189.38 206.69 193.32 C 207.11 193.46 207.96 193.73 208.39 193.87 C 208.67 190.00 209.27 186.05 211.56 182.81 C 211.90 185.50 211.02 188.70 212.91 190.95 C 214.43 192.76 215.43 194.91 215.89 197.23 C 217.50 204.14 219.51 211.30 224.20 216.82 C 230.03 223.93 237.44 230.34 246.62 232.40 C 257.08 235.54 268.14 232.89 278.03 229.08 C 283.96 227.04 289.39 223.86 294.89 220.91 C 297.71 220.38 300.58 220.19 303.45 220.16 C 301.58 222.15 298.76 222.37 296.26 222.97 C 297.55 224.01 298.85 225.05 300.14 226.09 C 299.10 227.65 298.06 229.21 297.02 230.77 C 302.17 231.30 307.50 231.70 311.79 234.96 L 313.36 235.89 C 311.29 237.35 308.10 237.85 307.13 240.50 C 306.72 240.43 305.89 240.29 305.47 240.23 L 305.64 241.44 C 304.25 241.87 302.88 242.36 301.52 242.85 C 301.53 243.23 301.56 244.00 301.58 244.38 C 300.79 244.44 299.21 244.56 298.42 244.62 C 298.45 245.02 298.51 245.82 298.54 246.22 C 296.66 246.32 294.78 246.79 294.01 248.72 C 293.66 248.59 292.96 248.32 292.61 248.19 L 292.50 249.25 C 287.19 252.09 281.53 254.32 276.38 257.39 C 275.64 257.42 274.16 257.47 273.41 257.49 L 273.40 258.74 C 272.93 258.59 271.98 258.29 271.51 258.14 L 271.59 259.37 C 270.04 259.38 268.55 259.68 267.10 260.18 C 265.35 261.02 263.47 261.51 261.54 261.72 L 261.43 262.46 C 260.05 262.45 258.66 262.44 257.28 262.43 L 257.65 263.40 C 247.50 264.85 237.21 264.89 226.96 264.43 C 223.40 264.23 220.09 262.78 216.59 262.24 L 216.45 261.47 C 215.69 261.49 214.16 261.53 213.39 261.56 L 213.46 260.11 C 212.99 260.31 212.04 260.70 211.56 260.90 L 211.54 259.51 C 210.76 259.51 209.19 259.53 208.41 259.54 L 208.47 258.26 C 208.01 258.37 207.10 258.60 206.64 258.71 L 206.43 257.20 C 205.96 257.34 205.02 257.63 204.55 257.77 L 204.69 256.45 L 203.41 256.65 L 203.45 255.51 C 202.70 255.48 201.19 255.43 200.44 255.40 C 200.44 255.02 200.46 254.25 200.47 253.86 C 197.81 253.31 196.20 250.79 193.60 250.09 C 193.60 249.68 193.59 248.85 193.59 248.43 C 193.07 248.45 192.02 248.48 191.49 248.50 C 191.51 247.98 191.56 246.96 191.58 246.44 C 191.06 246.46 190.01 246.50 189.48 246.53 C 189.50 246.00 189.53 244.96 189.55 244.44 C 189.02 244.44 187.97 244.44 187.45 244.44 C 187.47 244.04 187.51 243.25 187.53 242.86 C 185.47 242.28 184.60 240.48 184.18 238.55 C 183.75 238.54 182.89 238.53 182.46 238.52 C 182.50 238.03 182.59 237.04 182.63 236.55 L 181.69 236.49 C 180.92 235.15 180.13 233.81 179.35 232.48 L 178.50 232.48 C 178.47 231.72 178.39 230.21 178.36 229.46 C 177.92 229.47 177.03 229.50 176.59 229.51 C 176.55 228.76 176.47 227.26 176.43 226.50 L 175.19 226.46 C 175.33 225.98 175.62 225.01 175.76 224.53 L 174.18 224.48 C 174.33 224.00 174.63 223.03 174.78 222.55 L 173.70 222.54 C 173.31 220.97 172.77 219.44 172.14 217.95 C 171.61 216.48 171.35 214.96 171.33 213.40 L 170.03 213.50 C 170.23 213.03 170.61 212.09 170.80 211.62 L 169.64 211.54 C 169.73 208.12 168.46 204.86 168.35 201.45 L 167.52 201.60 C 167.33 192.19 167.36 182.79 167.53 173.38 L 168.48 173.60 C 168.49 171.92 168.52 170.24 168.53 168.56 L 169.43 168.47 C 169.45 165.95 169.55 163.43 169.75 160.92 Z" />
</g>
<g id="#eddbccff">
<path fill="#eddbcc" opacity="1.00" d=" M 215.89 197.23 C 215.16 193.47 215.21 189.48 217.29 186.13 C 217.90 196.06 220.57 206.17 226.46 214.33 C 232.41 223.18 242.25 229.67 253.01 230.51 C 257.16 230.75 261.60 231.10 265.38 229.03 C 266.78 228.41 268.34 228.49 269.82 228.31 L 269.24 226.91 C 269.83 227.05 271.01 227.32 271.60 227.46 C 275.06 227.20 278.15 225.37 281.28 224.01 C 290.00 220.02 298.10 214.82 305.96 209.35 C 307.15 209.87 308.36 210.40 309.56 210.93 C 304.82 214.47 299.72 217.50 294.89 220.91 C 289.39 223.86 283.96 227.04 278.03 229.08 C 268.14 232.89 257.08 235.54 246.62 232.40 C 237.44 230.34 230.03 223.93 224.20 216.82 C 219.51 211.30 217.50 204.14 215.89 197.23 Z" />
</g>
<g id="#746664ff">
<path fill="#746664" opacity="1.00" d=" M 304.79 191.80 C 309.01 192.20 313.20 192.88 317.43 193.20 C 318.78 193.46 320.13 193.72 321.47 194.09 C 320.91 195.84 320.54 197.82 318.95 198.97 C 315.59 201.84 312.23 204.71 308.73 207.39 C 307.81 208.06 306.88 208.71 305.96 209.35 C 298.10 214.82 290.00 220.02 281.28 224.01 C 278.15 225.37 275.06 227.20 271.60 227.46 C 271.12 227.35 270.15 227.14 269.66 227.04 C 282.68 222.83 294.54 215.76 305.62 207.83 C 310.41 204.90 314.56 201.09 318.81 197.46 C 318.70 196.49 318.60 195.53 318.50 194.57 C 313.84 194.24 309.12 193.69 304.79 191.80 Z" />
</g>
<g id="#9f8464ff">
<path fill="#9f8464" opacity="1.00" d=" M 321.47 194.09 C 323.56 195.08 325.78 195.70 328.10 195.87 C 335.13 198.96 342.86 199.73 350.21 201.80 C 359.10 204.26 367.84 207.31 376.28 211.06 C 374.13 215.56 373.51 220.62 371.13 225.02 C 371.23 222.99 371.33 220.97 371.43 218.94 C 361.65 214.84 351.79 210.57 341.23 208.96 C 330.56 206.51 319.57 207.63 308.73 207.39 C 312.23 204.71 315.59 201.84 318.95 198.97 C 320.54 197.82 320.91 195.84 321.47 194.09 Z" />
</g>
<g id="#c7b294ff">
<path fill="#c7b294" opacity="1.00" d=" M 328.10 195.87 C 333.62 195.53 338.86 197.44 344.18 198.62 C 351.42 200.28 358.50 202.56 365.60 204.72 C 370.55 206.42 375.77 208.03 379.69 211.67 C 378.84 211.52 377.13 211.22 376.28 211.06 C 367.84 207.31 359.10 204.26 350.21 201.80 C 342.86 199.73 335.13 198.96 328.10 195.87 Z" />
</g>
<g id="#e7ceb0ff">
<path fill="#e7ceb0" opacity="1.00" d=" M 305.96 209.35 C 306.88 208.71 307.81 208.06 308.73 207.39 C 319.57 207.63 330.56 206.51 341.23 208.96 C 351.79 210.57 361.65 214.84 371.43 218.94 C 371.33 220.97 371.23 222.99 371.13 225.02 C 370.24 226.73 369.62 228.57 369.16 230.44 C 368.71 231.18 368.28 231.92 367.85 232.67 C 366.68 237.30 364.44 241.57 363.48 246.26 C 363.45 245.53 363.39 244.06 363.36 243.32 C 361.35 247.94 359.71 252.70 357.99 257.43 C 352.39 256.33 346.73 255.20 340.99 255.32 C 332.78 255.45 324.58 255.10 316.37 255.35 C 316.44 253.73 316.50 252.11 316.53 250.49 L 317.33 250.47 C 318.02 247.75 319.11 245.14 319.60 242.38 L 320.34 242.55 C 320.36 241.27 320.70 240.09 321.35 239.03 C 321.37 238.37 321.42 237.05 321.44 236.39 L 322.53 236.51 C 322.52 235.75 322.50 234.25 322.49 233.49 L 323.44 233.52 C 323.53 231.65 323.61 229.78 323.68 227.92 C 321.39 228.59 319.48 230.14 317.90 231.86 C 317.55 232.11 316.84 232.59 316.49 232.84 L 316.46 233.70 C 315.98 233.61 315.01 233.44 314.53 233.35 C 314.48 233.95 314.39 235.13 314.34 235.73 C 313.70 235.54 312.43 235.15 311.79 234.96 C 307.50 231.70 302.17 231.30 297.02 230.77 C 298.06 229.21 299.10 227.65 300.14 226.09 C 298.85 225.05 297.55 224.01 296.26 222.97 C 298.76 222.37 301.58 222.15 303.45 220.16 C 300.58 220.19 297.71 220.38 294.89 220.91 C 299.72 217.50 304.82 214.47 309.56 210.93 C 308.36 210.40 307.15 209.87 305.96 209.35 Z" />
<path fill="#e7ceb0" opacity="1.00" d=" M 415.59 226.03 C 418.88 226.25 422.51 225.85 425.41 227.75 C 429.73 230.57 433.77 233.83 438.10 236.63 C 442.43 237.76 447.15 236.93 451.32 238.76 C 452.48 240.52 453.07 242.58 453.78 244.54 C 454.78 241.85 455.84 239.17 456.89 236.50 C 458.20 245.85 458.23 255.30 458.82 264.70 C 457.59 270.48 454.97 275.88 452.21 281.07 C 450.24 284.89 447.36 288.21 445.79 292.24 C 445.66 292.54 445.38 293.14 445.24 293.43 L 444.28 293.49 C 444.34 293.98 444.47 294.95 444.54 295.43 C 444.00 295.46 442.93 295.52 442.40 295.56 C 442.48 296.03 442.65 296.97 442.73 297.44 L 441.85 297.50 C 439.34 300.73 436.70 303.91 433.88 306.85 C 430.92 310.02 428.06 313.37 424.44 315.81 L 424.54 316.74 C 424.03 316.69 423.00 316.60 422.49 316.55 C 422.54 316.99 422.62 317.87 422.67 318.31 C 421.60 318.77 420.54 319.25 419.50 319.76 C 419.50 320.19 419.48 321.06 419.47 321.49 C 418.98 321.44 417.99 321.33 417.50 321.27 L 417.43 322.14 C 415.50 323.48 413.83 325.38 411.45 325.90 C 411.46 326.21 411.48 326.82 411.49 327.13 C 409.29 327.62 407.65 329.16 406.04 330.61 L 404.76 330.01 C 401.16 327.84 396.88 328.45 392.90 328.66 C 393.31 327.47 393.70 326.28 394.12 325.09 C 398.11 325.64 402.10 326.25 406.07 326.95 C 400.52 322.75 395.28 318.17 389.88 313.78 C 393.33 309.23 396.91 304.79 400.69 300.53 C 400.17 299.36 399.68 298.19 399.15 297.04 C 406.62 284.74 412.38 270.62 411.61 255.98 C 411.96 249.77 410.06 243.76 407.71 238.10 C 408.63 236.36 409.56 234.63 410.52 232.91 C 412.64 234.65 414.17 236.92 415.51 239.28 C 416.57 237.95 417.87 236.67 418.16 234.92 C 419.16 231.68 416.81 228.83 415.59 226.03 Z" />
</g>
<g id="#8f8078ff">
<path fill="#8f8078" opacity="1.00" d=" M 363.36 243.32 C 363.39 244.06 363.45 245.53 363.48 246.26 C 362.63 249.94 361.18 253.44 360.05 257.04 C 369.90 259.44 380.57 261.98 388.03 269.30 C 382.75 267.32 378.15 263.91 372.79 262.10 C 368.71 260.37 364.22 260.02 360.11 258.39 C 359.58 258.15 358.52 257.67 357.99 257.43 C 359.71 252.70 361.35 247.94 363.36 243.32 Z" />
</g>
<g id="#eddccbff">
<path fill="#eddccb" opacity="1.00" d=" M 316.37 255.35 C 324.58 255.10 332.78 255.45 340.99 255.32 C 346.73 255.20 352.39 256.33 357.99 257.43 C 358.52 257.67 359.58 258.15 360.11 258.39 C 358.45 259.02 356.79 259.90 354.96 259.73 C 331.40 256.86 307.32 259.72 284.67 266.57 C 273.52 269.16 262.80 273.33 252.57 278.43 C 247.77 280.84 244.07 285.05 238.92 286.86 C 238.80 286.44 238.54 285.58 238.41 285.16 L 238.06 284.00 C 239.98 282.85 241.70 281.40 243.54 280.13 L 243.61 279.19 C 244.08 279.36 245.01 279.71 245.48 279.88 L 245.30 278.43 L 246.67 278.55 L 246.58 277.13 C 247.04 277.32 247.96 277.70 248.41 277.88 L 248.46 276.45 C 248.95 276.47 249.92 276.50 250.40 276.52 L 250.48 275.62 C 253.26 274.82 255.46 272.64 258.41 272.33 C 258.41 272.10 258.40 271.65 258.40 271.42 C 260.14 270.94 261.91 270.57 263.70 270.28 L 263.09 269.11 L 264.51 269.76 L 264.46 268.52 C 265.24 268.53 266.81 268.53 267.59 268.54 L 267.65 267.27 C 268.10 267.42 269.00 267.72 269.44 267.87 L 269.43 266.57 C 270.79 266.53 272.15 266.49 273.52 266.46 L 273.46 265.45 C 274.22 265.46 275.74 265.47 276.50 265.47 L 276.35 264.37 C 277.13 264.39 278.68 264.44 279.46 264.47 L 279.52 263.50 C 280.30 263.51 281.84 263.52 282.62 263.53 L 282.27 262.63 C 285.14 262.14 288.02 261.62 290.91 261.21 L 289.99 259.73 C 290.85 259.99 292.56 260.50 293.42 260.75 L 293.55 259.60 C 295.59 259.55 297.63 259.49 299.67 259.44 L 299.28 258.46 C 300.67 258.45 302.06 258.44 303.45 258.43 L 303.54 257.61 C 307.15 257.52 310.77 257.35 314.39 257.29 C 314.39 256.82 314.38 255.88 314.37 255.40 C 314.87 255.39 315.87 255.36 316.37 255.35 Z" />
</g>
<g id="#e5c9a9ff">
<path fill="#e5c9a9" opacity="1.00" d=" M 284.67 266.57 C 307.32 259.72 331.40 256.86 354.96 259.73 C 356.79 259.90 358.45 259.02 360.11 258.39 C 364.22 260.02 368.71 260.37 372.79 262.10 C 378.15 263.91 382.75 267.32 388.03 269.30 C 388.28 269.88 388.77 271.03 389.02 271.60 C 377.43 270.04 365.71 270.43 354.04 270.47 C 339.33 270.31 324.68 272.79 310.52 276.63 C 307.90 277.22 305.22 277.48 302.65 278.26 C 301.29 278.65 299.98 279.20 298.67 279.72 C 294.40 276.68 288.61 279.06 284.63 275.64 C 286.33 275.19 288.03 274.76 289.74 274.34 C 288.41 272.90 287.08 271.44 285.76 270.00 C 287.46 269.13 289.15 268.27 290.85 267.41 C 288.79 267.10 286.73 266.79 284.67 266.57 Z" />
</g>
<g id="#e0c19cff">
<path fill="#e0c19c" opacity="1.00" d=" M 252.57 278.43 C 262.80 273.33 273.52 269.16 284.67 266.57 C 286.73 266.79 288.79 267.10 290.85 267.41 C 289.15 268.27 287.46 269.13 285.76 270.00 C 287.08 271.44 288.41 272.90 289.74 274.34 C 288.03 274.76 286.33 275.19 284.63 275.64 C 288.61 279.06 294.40 276.68 298.67 279.72 C 285.20 285.36 271.75 293.04 263.56 305.54 C 259.47 311.60 257.49 319.45 259.68 326.57 C 262.65 332.90 269.49 335.62 274.97 339.29 C 275.54 339.66 276.11 340.03 276.69 340.41 C 275.96 340.40 274.50 340.37 273.77 340.35 C 270.16 344.43 267.56 350.29 262.13 352.13 C 255.30 350.92 249.06 347.51 243.28 343.80 C 235.66 339.13 229.74 331.94 226.10 323.82 C 223.06 316.62 225.10 308.73 224.78 301.21 L 225.78 301.41 C 225.63 300.96 225.34 300.06 225.19 299.62 L 226.30 299.53 C 226.59 297.92 227.08 296.36 228.26 295.18 C 228.82 293.97 229.29 292.69 230.65 292.15 C 230.65 291.85 230.64 291.26 230.63 290.96 C 233.50 289.11 235.35 286.09 238.09 284.05 L 238.41 285.16 C 238.54 285.58 238.80 286.44 238.92 286.86 C 244.07 285.05 247.77 280.84 252.57 278.43 Z" />
</g>
<g id="#9f8465ff">
<path fill="#9f8465" opacity="1.00" d=" M 310.52 276.63 C 324.68 272.79 339.33 270.31 354.04 270.47 C 351.96 277.32 349.94 284.19 347.75 291.01 C 347.30 292.62 346.41 294.04 345.51 295.42 C 345.21 290.23 348.70 285.87 348.93 280.74 C 334.99 282.45 320.82 285.48 308.72 292.93 C 306.62 294.31 304.28 295.27 301.88 295.97 C 303.46 289.93 306.31 284.32 307.98 278.31 C 306.20 278.27 304.42 278.23 302.65 278.26 C 305.22 277.48 307.90 277.22 310.52 276.63 Z" />
</g>
<g id="#7d6c63ff">
<path fill="#7d6c63" opacity="1.00" d=" M 302.65 278.26 C 304.42 278.23 306.20 278.27 307.98 278.31 C 306.31 284.32 303.46 289.93 301.88 295.97 C 301.44 297.09 300.92 298.19 300.41 299.28 C 294.29 312.50 289.61 326.39 282.95 339.35 C 280.35 340.30 277.57 340.07 274.97 339.29 C 269.49 335.62 262.65 332.90 259.68 326.57 C 257.49 319.45 259.47 311.60 263.56 305.54 C 271.75 293.04 285.20 285.36 298.67 279.72 C 299.98 279.20 301.29 278.65 302.65 278.26 M 289.16 285.86 C 280.58 290.18 272.59 295.99 266.65 303.60 C 262.29 309.71 259.00 317.33 260.65 324.96 C 263.41 331.96 270.78 335.06 277.04 338.20 C 278.61 339.09 280.43 338.59 282.12 338.47 C 286.16 328.42 290.94 318.67 294.78 308.53 C 298.46 298.78 303.61 289.46 305.80 279.22 C 299.93 280.49 294.49 283.16 289.16 285.86 Z" />
</g>
<g id="#261c23ff">
</g>
<g id="#e1c39fff">
<path fill="#e1c39f" opacity="1.00" d=" M 308.72 292.93 C 320.82 285.48 334.99 282.45 348.93 280.74 C 348.70 285.87 345.21 290.23 345.51 295.42 C 345.42 295.61 345.25 295.98 345.16 296.16 C 344.64 297.29 344.24 298.46 343.80 299.62 C 339.69 307.28 337.79 315.88 334.69 323.96 C 333.10 329.52 330.03 334.65 329.36 340.46 C 330.05 340.50 331.43 340.58 332.12 340.62 C 331.03 341.44 329.95 342.29 328.89 343.15 C 334.75 343.95 340.27 341.39 345.77 339.79 C 357.54 336.31 368.66 330.72 378.56 323.48 C 382.60 320.58 386.80 317.75 389.88 313.78 C 395.28 318.17 400.52 322.75 406.07 326.95 C 402.10 326.25 398.11 325.64 394.12 325.09 C 393.70 326.28 393.31 327.47 392.90 328.66 C 396.88 328.45 401.16 327.84 404.76 330.01 C 404.66 330.58 404.45 331.72 404.35 332.29 C 403.76 332.38 402.57 332.54 401.98 332.63 C 401.08 334.35 399.35 334.68 397.58 334.79 C 397.57 335.15 397.56 335.88 397.55 336.24 C 396.14 336.68 394.72 337.10 393.30 337.50 L 393.44 338.79 C 392.98 338.64 392.07 338.35 391.61 338.21 L 391.45 339.18 C 389.38 339.90 387.53 341.12 385.42 341.69 L 385.44 342.77 C 385.09 342.68 384.37 342.50 384.02 342.41 C 382.94 343.80 381.02 343.43 379.51 343.76 C 379.52 344.14 379.55 344.89 379.57 345.26 C 377.99 345.47 376.25 345.41 374.97 346.53 C 374.61 346.46 373.89 346.34 373.53 346.27 L 373.63 347.38 C 372.26 347.39 371.04 347.78 369.97 348.55 C 369.60 348.46 368.85 348.27 368.48 348.17 L 368.62 349.34 C 367.39 349.51 366.19 349.77 365.01 350.12 C 363.30 350.65 361.59 351.20 359.90 351.79 C 358.51 352.53 356.90 352.47 355.39 352.57 L 355.55 353.52 C 354.90 353.54 353.61 353.59 352.96 353.61 C 347.55 354.72 342.15 356.88 336.50 356.60 L 336.52 357.48 C 334.81 357.48 333.10 357.50 331.41 357.51 L 331.61 358.46 C 327.91 358.44 324.21 358.58 320.51 358.71 C 320.56 359.16 320.66 360.06 320.71 360.51 L 319.33 360.41 C 319.33 361.02 319.33 362.23 319.33 362.84 C 318.91 362.69 318.07 362.39 317.65 362.24 C 317.31 360.57 316.97 358.90 316.64 357.24 C 311.32 356.92 305.96 357.03 300.69 356.11 C 297.80 355.53 294.88 356.02 292.02 356.44 C 292.67 354.40 293.49 352.43 294.47 350.53 C 293.53 349.43 292.58 348.34 291.64 347.25 C 290.24 350.04 288.78 352.80 287.08 355.42 C 284.85 352.20 286.12 348.29 286.30 344.71 C 285.69 344.62 284.45 344.44 283.83 344.35 C 290.58 330.58 296.81 316.53 301.86 302.04 C 301.37 301.11 300.89 300.20 300.41 299.28 C 300.92 298.19 301.44 297.09 301.88 295.97 C 304.28 295.27 306.62 294.31 308.72 292.93 Z" />
</g>
<g id="#eedaccff">
<path fill="#eedacc" opacity="1.00" d=" M 397.10 300.08 C 397.69 299.01 398.41 298.02 399.15 297.04 C 399.68 298.19 400.17 299.36 400.69 300.53 C 396.91 304.79 393.33 309.23 389.88 313.78 C 386.80 317.75 382.60 320.58 378.56 323.48 C 368.66 330.72 357.54 336.31 345.77 339.79 C 340.27 341.39 334.75 343.95 328.89 343.15 C 329.95 342.29 331.03 341.44 332.12 340.62 C 340.05 338.90 347.71 336.17 355.21 333.11 C 357.10 332.37 358.79 331.26 360.46 330.13 C 364.83 328.07 368.98 325.60 373.02 322.96 C 374.40 322.05 375.71 321.05 377.06 320.09 C 384.83 314.62 391.40 307.66 397.10 300.08 Z" />
</g>
<g id="#f0dac5ff">
<path fill="#f0dac5" opacity="1.00" d=" M 300.41 299.28 C 300.89 300.20 301.37 301.11 301.86 302.04 C 296.81 316.53 290.58 330.58 283.83 344.35 C 281.25 351.16 276.93 357.05 273.35 363.33 C 270.14 369.01 265.91 374.03 261.41 378.72 C 254.03 385.18 245.14 390.82 235.21 391.99 C 233.61 391.51 232.03 390.97 230.42 390.51 C 233.01 390.40 235.59 390.20 238.18 389.99 L 237.67 388.94 L 237.08 387.68 C 238.93 387.58 240.78 387.49 242.63 387.42 L 242.56 386.11 C 243.03 386.31 243.96 386.71 244.43 386.90 L 244.37 385.49 C 245.13 385.47 246.65 385.44 247.42 385.43 L 247.50 384.33 L 248.80 384.64 L 248.46 383.20 C 248.94 383.33 249.88 383.58 250.35 383.71 L 250.62 382.42 C 251.03 382.46 251.85 382.54 252.26 382.58 C 252.23 380.60 254.01 380.54 255.49 380.26 C 255.48 379.84 255.45 378.99 255.43 378.57 C 255.97 378.57 257.05 378.57 257.59 378.56 C 257.60 378.04 257.63 376.99 257.64 376.46 C 258.11 376.55 259.07 376.73 259.54 376.82 L 259.36 375.44 L 260.65 375.58 L 260.35 374.28 L 261.71 374.60 C 261.67 374.08 261.60 373.04 261.56 372.52 C 261.99 372.54 262.84 372.57 263.27 372.59 C 263.75 371.50 264.24 370.41 264.73 369.32 C 265.11 369.38 265.87 369.48 266.25 369.53 C 266.34 368.83 266.52 367.42 266.61 366.72 C 268.52 366.72 268.45 364.91 268.70 363.51 L 269.29 363.48 C 269.84 362.66 270.44 361.87 271.09 361.12 C 273.47 358.81 273.86 355.36 275.40 352.55 C 277.77 348.07 280.17 343.59 282.95 339.35 C 289.61 326.39 294.29 312.50 300.41 299.28 Z" />
</g>
<g id="#796967ff">
<path fill="#796967" opacity="1.00" d=" M 334.69 323.96 C 337.79 315.88 339.69 307.28 343.80 299.62 C 343.57 304.94 341.24 309.77 339.53 314.71 C 336.60 322.71 333.99 330.81 331.06 338.81 C 341.44 338.12 350.50 332.39 360.46 330.13 C 358.79 331.26 357.10 332.37 355.21 333.11 C 347.71 336.17 340.05 338.90 332.12 340.62 C 331.43 340.58 330.05 340.50 329.36 340.46 C 330.03 334.65 333.10 329.52 334.69 323.96 Z" />
</g>
<g id="#9f8566ff">
<path fill="#9f8566" opacity="1.00" d=" M 226.72 328.70 C 222.19 320.36 220.76 310.04 224.78 301.21 C 225.10 308.73 223.06 316.62 226.10 323.82 C 229.74 331.94 235.66 339.13 243.28 343.80 C 249.06 347.51 255.30 350.92 262.13 352.13 C 267.56 350.29 270.16 344.43 273.77 340.35 C 274.50 340.37 275.96 340.40 276.69 340.41 C 276.11 340.03 275.54 339.66 274.97 339.29 C 277.57 340.07 280.35 340.30 282.95 339.35 C 280.17 343.59 277.77 348.07 275.40 352.55 C 273.86 355.36 273.47 358.81 271.09 361.12 C 271.47 359.03 271.57 356.91 271.38 354.81 C 267.99 354.63 264.52 354.84 261.22 353.96 C 253.07 351.52 245.22 347.80 238.57 342.46 C 234.15 338.33 229.40 334.24 226.72 328.70 Z" />
</g>
<g id="#e4cfbaff">
<path fill="#e4cfba" opacity="1.00" d=" M 177.59 320.68 C 183.91 318.62 190.75 319.12 197.27 319.71 C 194.60 320.77 191.91 321.85 189.04 322.20 C 181.46 323.28 173.50 325.38 167.89 330.90 C 164.65 334.03 161.26 337.21 159.39 341.40 C 157.86 344.90 155.95 348.26 154.75 351.90 C 153.91 356.04 153.59 360.27 153.04 364.46 C 151.48 358.61 152.83 352.70 153.60 346.88 C 153.65 346.40 153.74 345.43 153.79 344.95 C 154.11 343.78 154.42 342.61 154.71 341.44 L 155.51 341.68 C 155.91 340.28 156.35 338.90 156.78 337.51 C 157.16 337.50 157.92 337.48 158.30 337.48 C 158.38 336.72 158.54 335.20 158.62 334.44 C 158.99 334.46 159.72 334.48 160.08 334.50 C 160.69 332.70 161.94 331.25 162.99 329.71 C 163.27 329.67 163.81 329.58 164.09 329.54 C 165.00 327.83 167.16 327.36 167.90 325.53 C 168.20 325.55 168.79 325.61 169.09 325.64 C 171.26 323.25 174.42 322.10 177.45 321.27 L 177.59 320.68 Z" />
</g>
<g id="#dbb88dff">
<path fill="#dbb88d" opacity="1.00" d=" M 197.27 319.71 C 197.82 319.59 198.91 319.34 199.45 319.21 L 199.57 320.45 C 201.28 320.89 203.00 321.34 204.72 321.75 C 204.65 322.66 204.52 324.48 204.45 325.39 C 203.80 325.46 202.50 325.59 201.84 325.66 C 200.92 327.79 198.38 328.31 196.92 329.98 C 193.22 333.66 189.10 337.34 187.21 342.33 L 186.71 342.60 C 186.31 344.46 185.54 346.21 184.63 347.88 C 184.28 353.87 183.76 360.02 185.07 365.93 C 186.24 369.37 188.45 372.29 189.74 375.67 C 190.13 375.65 190.90 375.61 191.29 375.59 C 191.40 376.20 191.62 377.41 191.73 378.01 C 195.10 379.55 197.61 382.46 201.10 383.83 C 202.04 384.25 202.95 384.73 203.82 385.29 C 205.28 385.72 206.71 386.23 208.11 386.85 C 210.76 387.53 213.44 388.10 216.08 388.85 C 221.59 390.03 227.34 389.50 232.93 389.19 C 234.41 388.78 236.26 387.73 237.67 388.94 L 238.18 389.99 C 235.59 390.20 233.01 390.40 230.42 390.51 C 223.79 390.14 217.12 389.46 210.52 390.46 C 218.27 393.87 227.08 394.08 235.21 391.99 C 245.14 390.82 254.03 385.18 261.41 378.72 C 263.42 378.75 265.45 378.79 267.48 378.82 C 267.57 377.13 267.66 375.45 267.75 373.78 C 270.50 376.02 273.27 379.36 277.23 377.86 C 277.49 378.64 277.75 379.44 278.02 380.24 C 275.33 380.48 272.67 380.93 270.10 381.77 C 274.29 383.15 278.77 383.92 282.52 386.37 C 285.45 388.29 288.45 390.14 291.78 391.28 C 291.21 391.93 290.65 392.59 290.10 393.25 C 288.25 393.91 286.51 394.80 284.97 396.04 C 282.68 397.41 280.19 398.57 277.50 398.80 C 277.52 399.18 277.57 399.92 277.59 400.30 C 276.04 400.39 274.50 400.55 273.12 401.29 L 272.39 401.41 L 272.41 402.42 C 271.25 402.50 270.09 402.59 268.94 402.70 C 266.31 403.61 263.68 404.49 261.01 405.27 C 260.35 405.31 259.04 405.38 258.38 405.42 L 258.55 406.39 C 256.35 406.40 254.12 406.43 252.04 407.21 C 245.65 407.60 239.45 409.72 233.00 409.47 C 224.14 409.34 215.18 410.11 206.42 408.53 L 206.56 407.61 C 202.47 407.86 198.54 406.46 194.48 406.32 L 194.51 405.06 C 194.14 405.19 193.38 405.47 193.01 405.60 C 192.15 404.82 191.13 404.40 189.93 404.34 C 188.69 403.75 187.45 403.17 186.14 402.79 C 182.42 401.59 179.13 399.44 175.47 398.10 C 175.48 397.72 175.49 396.97 175.50 396.59 C 174.81 396.55 173.43 396.47 172.74 396.42 C 167.47 391.57 160.88 387.43 158.14 380.52 C 157.77 380.50 157.05 380.46 156.68 380.44 C 156.60 379.82 156.43 378.60 156.35 377.98 C 155.69 376.80 155.32 375.54 155.23 374.20 C 154.86 370.87 153.69 367.72 153.04 364.46 C 153.59 360.27 153.91 356.04 154.75 351.90 C 155.95 348.26 157.86 344.90 159.39 341.40 C 161.26 337.21 164.65 334.03 167.89 330.90 C 173.50 325.38 181.46 323.28 189.04 322.20 C 191.91 321.85 194.60 320.77 197.27 319.71 M 203.90 388.15 C 204.22 388.58 204.87 389.43 205.20 389.86 C 207.12 389.59 209.87 390.43 210.59 387.95 C 208.35 387.97 206.12 388.05 203.90 388.15 Z" />
</g>
<g id="#ddbd96ff">
<path fill="#ddbd96" opacity="1.00" d=" M 283.83 344.35 C 284.45 344.44 285.69 344.62 286.30 344.71 C 286.12 348.29 284.85 352.20 287.08 355.42 C 288.78 352.80 290.24 350.04 291.64 347.25 C 292.58 348.34 293.53 349.43 294.47 350.53 C 293.49 352.43 292.67 354.40 292.02 356.44 C 294.88 356.02 297.80 355.53 300.69 356.11 C 305.96 357.03 311.32 356.92 316.64 357.24 C 316.97 358.90 317.31 360.57 317.65 362.24 C 317.70 364.09 316.70 365.75 316.15 367.48 C 315.84 367.48 315.21 367.50 314.89 367.50 C 313.31 371.64 309.91 374.73 307.18 378.12 C 305.40 380.16 303.82 382.49 301.42 383.86 C 301.41 384.15 301.39 384.74 301.39 385.04 C 298.41 385.95 296.58 388.65 293.89 390.10 C 293.68 390.51 293.24 391.34 293.02 391.75 L 291.78 391.28 C 288.45 390.14 285.45 388.29 282.52 386.37 C 278.77 383.92 274.29 383.15 270.10 381.77 C 272.67 380.93 275.33 380.48 278.02 380.24 C 277.75 379.44 277.49 378.64 277.23 377.86 C 273.27 379.36 270.50 376.02 267.75 373.78 C 267.66 375.45 267.57 377.13 267.48 378.82 C 265.45 378.79 263.42 378.75 261.41 378.72 C 265.91 374.03 270.14 369.01 273.35 363.33 C 276.93 357.05 281.25 351.16 283.83 344.35 Z" />
</g>
<g id="#a08d7dff">
<path fill="#a08d7d" opacity="1.00" d=" M 152.76 345.00 L 153.60 346.88 C 152.83 352.70 151.48 358.61 153.04 364.46 C 153.69 367.72 154.86 370.87 155.23 374.20 L 154.05 375.13 C 153.55 372.02 152.09 369.15 151.60 366.06 C 151.11 359.55 151.13 352.98 152.44 346.57 L 152.76 345.00 Z" />
</g>
<g id="#524046ff">
</g>
<g id="#998676ff">
<path fill="#998676" opacity="1.00" d=" M 365.46 380.67 C 369.58 379.25 374.82 379.37 377.62 383.22 C 379.15 384.57 378.16 386.67 377.28 388.07 C 375.73 386.64 374.31 385.08 373.10 383.37 C 370.95 383.33 368.81 383.36 366.67 383.41 C 364.42 385.75 362.31 388.59 362.56 392.03 C 362.10 394.81 364.38 396.73 365.98 398.63 C 364.74 398.85 363.52 399.18 362.30 399.49 C 362.16 399.53 361.90 399.61 361.77 399.66 C 360.42 397.25 358.26 394.94 358.55 391.99 C 358.78 387.32 361.91 383.43 365.46 380.67 Z" />
</g>
<g id="#9c8678ff">
<path fill="#9c8678" opacity="1.00" d=" M 384.59 380.71 C 387.01 380.32 389.57 379.09 391.99 380.18 C 393.91 380.84 395.27 382.42 396.76 383.72 C 396.36 384.65 395.57 386.50 395.17 387.43 C 393.82 385.97 392.47 384.53 391.12 383.09 C 389.25 383.24 387.39 383.41 385.52 383.57 C 385.48 384.44 385.38 386.17 385.33 387.04 C 387.61 388.27 390.02 389.23 392.56 389.79 C 393.58 390.69 394.59 391.60 395.60 392.53 C 396.24 395.68 394.47 398.21 392.41 400.37 C 388.29 401.62 383.30 401.99 380.23 398.37 C 380.22 397.30 380.21 395.16 380.20 394.09 C 383.44 393.43 383.20 398.24 386.12 398.40 C 387.99 398.72 389.79 397.99 391.52 397.38 C 391.46 395.81 391.42 394.24 391.40 392.67 C 387.85 391.77 383.36 391.16 381.71 387.37 C 380.65 384.66 383.02 382.57 384.59 380.71 Z" />
</g>
<g id="#e2c9b0ff">
<path fill="#e2c9b0" opacity="1.00" d=" M 203.90 388.15 C 206.12 388.05 208.35 387.97 210.59 387.95 C 209.87 390.43 207.12 389.59 205.20 389.86 C 204.87 389.43 204.22 388.58 203.90 388.15 Z" />
</g>
<g id="#dec4aaff">
<path fill="#dec4aa" opacity="1.00" d=" M 210.52 390.46 C 217.12 389.46 223.79 390.14 230.42 390.51 C 232.03 390.97 233.61 391.51 235.21 391.99 C 227.08 394.08 218.27 393.87 210.52 390.46 Z" />
</g>
<g id="#ab967fff">
<path fill="#ab967f" opacity="1.00" d=" M 369.46 389.56 C 372.08 389.90 375.33 388.72 377.52 390.58 C 377.44 393.92 376.36 397.21 375.49 400.45 C 371.12 400.03 366.28 401.84 362.30 399.49 C 363.52 399.18 364.74 398.85 365.98 398.63 C 367.41 398.48 368.85 398.39 370.29 398.37 C 371.40 397.43 372.50 396.48 373.62 395.55 C 373.61 394.46 373.61 393.39 373.62 392.31 C 372.24 392.38 370.86 392.46 369.48 392.54 C 369.48 391.79 369.47 390.30 369.46 389.56 Z" />
</g>
</svg>
