<?xml version="1.0" encoding="UTF-8" ?>
<!DOCTYPE svg PUBLIC "-//W3C//DTD SVG 1.1//EN" "http://www.w3.org/Graphics/SVG/1.1/DTD/svg11.dtd">
<svg width="1080pt" height="1326pt" viewBox="0 0 1080 1326" version="1.1" xmlns="http://www.w3.org/2000/svg">
<g id="#ffffffff">
</g>
<g id="#020202ff">
<path fill="#020202" opacity="1.00" d=" M 1011.30 126.26 C 1026.77 108.43 1041.90 90.28 1057.60 72.65 C 963.51 202.80 869.24 332.84 775.09 462.94 C 774.66 463.64 774.34 464.39 774.11 465.19 C 782.39 468.78 790.72 472.29 798.79 476.36 C 808.41 481.15 818.20 485.76 827.04 491.93 C 819.79 503.25 811.52 513.91 803.95 525.03 C 793.34 539.93 782.74 554.83 772.27 569.83 C 769.08 568.50 766.46 566.19 763.55 564.40 C 735.38 546.02 705.15 529.71 672.14 522.16 C 673.62 519.69 675.47 517.50 677.43 515.41 C 788.69 385.66 900.04 256.00 1011.30 126.26 Z" />
<path fill="#020202" opacity="1.00" d=" M 201.56 312.47 C 245.41 278.01 300.07 256.64 356.01 255.23 C 367.32 253.92 378.69 255.28 390.00 255.85 C 422.46 258.49 454.51 267.06 483.76 281.50 C 526.26 302.61 563.28 334.87 589.42 374.53 C 569.27 386.74 549.20 399.06 529.04 411.25 C 520.81 416.06 512.93 421.51 504.46 425.90 C 496.62 415.42 488.46 405.09 478.87 396.13 C 464.46 382.71 448.42 370.85 430.64 362.27 C 406.05 350.45 378.09 345.51 350.98 348.47 C 306.99 352.53 266.36 376.78 238.39 410.45 C 224.18 427.77 213.30 447.77 206.06 468.96 C 192.49 509.73 194.52 555.60 212.36 594.76 C 228.07 630.34 255.43 660.80 289.65 679.45 C 317.30 695.32 349.95 702.10 381.63 698.94 C 412.40 696.32 442.28 684.66 466.87 665.99 C 492.01 646.33 512.78 619.60 520.99 588.38 C 457.52 588.20 394.05 588.36 330.58 588.30 C 330.53 558.48 330.37 528.65 330.66 498.84 C 427.74 498.86 524.82 498.81 621.90 498.86 C 620.07 502.81 616.91 505.90 614.32 509.33 C 452.64 714.64 291.03 919.99 129.36 1125.30 C 118.57 1138.86 108.08 1152.67 97.04 1166.03 C 175.09 1041.23 253.46 916.61 331.66 791.90 C 297.37 777.03 263.17 761.90 229.80 745.03 C 213.26 736.31 196.35 727.93 181.49 716.48 C 171.08 707.25 162.16 696.46 153.56 685.57 C 129.45 653.46 111.78 616.25 103.88 576.80 C 99.22 552.87 97.30 528.31 99.43 503.99 C 102.29 459.02 117.72 415.17 142.25 377.47 C 158.29 352.77 178.26 330.54 201.56 312.47 Z" />
<path fill="#020202" opacity="1.00" d=" M 531.71 682.63 C 549.38 662.60 566.72 642.29 584.46 622.33 C 594.84 625.67 605.24 629.04 615.89 631.46 C 639.92 636.87 663.66 643.63 687.97 647.70 C 720.17 653.37 752.18 662.25 781.03 677.97 C 803.57 690.44 823.30 708.83 835.05 731.97 C 846.04 752.11 850.38 775.24 850.58 798.01 C 851.06 819.45 848.77 841.22 841.28 861.44 C 833.87 882.49 820.60 901.23 803.91 915.97 C 790.11 927.50 774.43 936.80 757.68 943.34 C 736.16 952.23 713.12 956.93 690.04 959.43 C 669.48 961.57 648.72 960.69 628.08 960.51 C 605.00 959.28 581.98 955.93 559.70 949.66 C 531.11 942.21 503.95 929.86 478.87 914.33 C 463.13 904.31 447.50 894.07 432.41 883.08 C 450.11 857.41 467.40 831.46 484.96 805.70 C 485.38 804.85 486.56 803.81 487.47 804.66 C 513.15 822.28 540.23 837.88 568.43 851.12 C 595.49 863.46 625.25 870.08 655.01 869.59 C 679.13 869.76 703.65 863.45 723.74 849.82 C 735.90 841.32 746.08 829.13 749.72 814.52 C 752.93 803.89 752.07 792.05 746.82 782.21 C 740.40 770.72 728.81 763.31 717.28 757.65 C 693.68 747.21 668.06 742.83 642.91 737.82 C 618.60 732.94 593.99 729.44 570.06 722.87 C 551.06 717.92 532.58 711.01 515.04 702.18 C 520.20 695.34 526.25 689.23 531.71 682.63 Z" />
</g>
</svg>
