<?xml version="1.0" encoding="UTF-8" ?>
<!DOCTYPE svg PUBLIC "-//W3C//DTD SVG 1.1//EN" "http://www.w3.org/Graphics/SVG/1.1/DTD/svg11.dtd">
<svg width="392pt" height="100pt" viewBox="0 0 392 100" version="1.1" xmlns="http://www.w3.org/2000/svg">
<g id="#ffffffff">
<path fill="#ffffff" opacity="1.00" d=" M 190.58 0.00 L 195.42 0.00 C 203.89 0.13 212.50 0.28 220.72 2.54 C 224.43 3.54 228.36 5.39 230.04 9.09 C 232.78 15.31 233.37 22.23 233.88 28.94 C 234.35 39.73 234.27 50.74 231.50 61.26 C 230.61 64.90 228.64 68.59 225.04 70.16 C 217.84 73.40 209.76 73.75 202.00 74.15 C 190.75 74.32 179.36 74.67 168.25 72.57 C 163.80 71.55 158.57 70.37 156.10 66.09 C 153.60 61.30 152.90 55.81 152.25 50.51 C 151.30 39.07 151.24 27.42 153.43 16.10 C 154.33 11.31 156.15 5.85 161.12 3.90 C 170.42 0.14 180.70 0.23 190.58 0.00 M 175.60 6.89 C 171.70 7.34 167.70 7.76 164.07 9.32 C 162.48 9.91 161.26 11.24 160.75 12.85 C 158.91 17.68 158.54 22.91 158.08 28.00 C 157.54 37.84 157.61 47.81 159.57 57.50 C 160.28 60.07 160.74 63.26 163.36 64.63 C 168.58 67.01 174.41 67.34 180.04 67.81 C 188.70 68.26 197.38 68.25 206.04 67.77 C 211.37 67.34 216.84 66.94 221.85 64.89 C 225.00 63.63 225.60 59.84 226.29 56.91 C 228.21 46.42 228.20 35.66 227.38 25.06 C 226.88 20.75 226.47 16.32 224.77 12.28 C 224.03 10.06 221.70 9.27 219.69 8.61 C 214.23 6.94 208.46 6.74 202.80 6.40 C 193.73 6.15 184.64 6.07 175.60 6.89 Z" />
<path fill="#ffffff" opacity="1.00" d=" M 180.27 31.74 C 184.62 27.68 188.56 23.22 192.83 19.09 C 197.06 23.33 201.32 27.54 205.52 31.80 C 210.53 28.35 215.51 24.84 220.53 21.40 C 219.42 29.31 218.41 37.22 217.45 45.15 C 201.07 45.29 184.69 45.11 168.31 45.24 C 167.30 37.27 166.26 29.30 165.27 21.33 C 170.24 24.85 175.29 28.24 180.27 31.74 Z" />
<path fill="#ffffff" opacity="1.00" d=" M 16.43 35.32 C 19.24 35.33 22.05 35.33 24.86 35.34 C 24.82 42.26 25.01 49.20 24.79 56.12 C 24.60 61.32 21.08 66.16 16.29 68.11 C 11.06 69.90 5.41 68.84 0.00 69.11 L 0.00 60.68 C 3.93 60.58 7.87 60.84 11.79 60.55 C 14.58 60.44 16.61 57.63 16.43 54.95 C 16.49 48.41 16.42 41.87 16.43 35.32 Z" />
<path fill="#ffffff" opacity="1.00" d=" M 32.67 49.94 C 33.04 41.64 40.55 34.21 48.98 34.60 C 57.18 34.66 64.16 41.95 64.57 50.02 C 64.81 56.37 64.60 62.73 64.67 69.08 C 61.86 69.12 59.04 69.11 56.23 69.13 C 56.23 66.61 56.23 64.08 56.25 61.55 C 51.18 61.56 46.11 61.57 41.04 61.54 C 41.04 64.06 41.04 66.58 41.04 69.11 C 38.23 69.11 35.42 69.15 32.61 69.17 C 32.65 62.76 32.50 56.35 32.67 49.94 M 44.46 44.40 C 41.71 46.36 40.96 49.88 40.91 53.06 C 46.05 53.07 51.20 53.08 56.34 53.06 C 56.16 50.73 56.10 48.21 54.61 46.28 C 52.53 42.95 47.58 41.94 44.46 44.40 Z" />
<path fill="#ffffff" opacity="1.00" d=" M 79.35 38.31 C 85.38 33.80 93.25 35.84 100.20 35.43 C 100.19 38.24 100.19 41.05 100.22 43.86 C 95.63 44.01 91.00 43.53 86.44 44.15 C 79.36 46.20 78.97 57.45 85.77 60.13 C 90.47 61.28 95.41 60.37 100.21 60.68 C 100.19 63.49 100.19 66.31 100.20 69.12 C 92.93 68.68 84.50 70.84 78.48 65.54 C 70.00 58.90 70.46 44.40 79.35 38.31 Z" />
<path fill="#ffffff" opacity="1.00" d=" M 119.43 35.63 C 129.07 31.82 140.57 38.85 142.15 48.93 C 144.48 59.03 136.35 70.05 125.86 70.25 C 115.69 70.91 106.84 61.12 107.89 51.12 C 108.27 44.27 112.97 37.95 119.43 35.63 M 122.35 43.55 C 116.00 45.55 114.16 54.64 118.93 59.16 C 123.44 64.24 132.65 61.40 133.82 54.79 C 135.90 48.26 128.97 40.85 122.35 43.55 Z" />
<path fill="#ffffff" opacity="1.00" d=" M 275.50 51.99 C 276.17 44.81 282.50 38.34 289.85 38.30 C 297.81 37.93 304.75 45.15 304.97 52.94 C 305.14 58.72 304.99 64.51 305.03 70.29 C 302.43 70.29 299.83 70.29 297.23 70.27 C 297.23 67.91 297.23 65.55 297.26 63.19 C 292.58 63.21 287.90 63.18 283.22 63.22 C 283.19 65.57 283.19 67.93 283.19 70.29 C 280.57 70.29 277.95 70.30 275.33 70.22 C 275.44 64.14 275.10 58.05 275.50 51.99 M 283.10 55.41 C 287.84 55.41 292.58 55.39 297.32 55.43 C 297.81 50.99 294.67 45.71 289.75 46.09 C 285.19 46.41 282.71 51.24 283.10 55.41 Z" />
<path fill="#ffffff" opacity="1.00" d=" M 243.85 39.31 C 250.05 39.28 256.26 39.13 262.46 39.39 C 269.34 40.01 274.19 47.58 272.53 54.15 C 271.56 59.15 267.11 63.33 261.96 63.61 C 258.50 63.78 255.03 63.63 251.57 63.67 C 251.60 65.88 251.58 68.09 251.56 70.31 C 249.00 70.28 246.43 70.28 243.87 70.28 C 243.83 59.96 243.88 49.64 243.85 39.31 M 251.58 47.00 C 251.60 49.99 251.57 52.97 251.67 55.96 C 255.03 55.87 258.41 56.07 261.77 55.87 C 266.04 55.10 266.10 48.08 261.95 47.12 C 258.50 46.83 255.04 47.07 251.58 47.00 Z" />
<path fill="#ffffff" opacity="1.00" d=" M 307.01 39.00 C 314.07 39.12 321.15 38.75 328.19 39.19 C 334.97 39.99 338.75 48.60 335.42 54.37 C 334.02 57.35 331.02 59.03 327.97 59.89 C 328.35 60.43 329.10 61.51 329.47 62.05 C 331.71 62.46 333.98 62.43 336.25 62.47 C 336.23 65.08 336.22 67.69 336.18 70.30 C 332.16 70.42 327.68 70.47 324.47 67.65 C 319.84 63.72 319.30 57.26 316.98 51.99 C 320.33 51.95 323.68 52.14 327.02 51.92 C 329.22 51.35 329.37 48.49 327.78 47.14 C 323.52 46.50 319.16 47.03 314.87 46.87 C 314.85 54.66 314.87 62.45 314.86 70.25 C 312.24 70.29 309.63 70.29 307.01 70.29 C 307.03 59.86 307.04 49.43 307.01 39.00 Z" />
<path fill="#ffffff" opacity="1.00" d=" M 338.60 39.01 C 345.86 38.99 353.13 39.00 360.40 39.00 C 360.39 41.59 360.39 44.17 360.39 46.76 C 358.05 46.79 355.72 46.80 353.40 46.78 C 353.39 54.61 353.40 62.45 353.40 70.29 C 350.80 70.29 348.21 70.29 345.63 70.28 C 345.61 62.45 345.66 54.61 345.59 46.78 C 343.26 46.80 340.94 46.79 338.61 46.76 C 338.60 44.17 338.60 41.59 338.60 39.01 Z" />
<path fill="#ffffff" opacity="1.00" d=" M 362.49 39.00 C 365.35 39.00 368.20 39.00 371.06 39.00 C 372.78 43.18 374.70 47.28 376.36 51.49 C 378.68 47.37 380.90 43.19 383.07 38.99 C 386.04 39.00 389.01 39.00 391.99 39.00 C 387.39 47.42 383.19 56.06 378.22 64.26 C 374.92 69.35 368.52 70.84 362.81 70.30 C 362.80 67.69 362.80 65.07 362.80 62.46 C 365.92 62.49 369.43 62.72 371.72 60.14 C 368.51 53.16 365.64 46.02 362.49 39.00 Z" />
<path fill="#ffffff" opacity="1.00" d=" M 168.79 49.33 C 184.84 49.35 200.88 49.29 216.93 49.36 C 216.67 51.09 216.42 52.83 216.15 54.56 C 200.63 54.56 185.10 54.54 169.58 54.57 C 169.31 52.82 169.05 51.08 168.79 49.33 Z" />
<path fill="#ffffff" opacity="1.00" d=" M 134.08 84.36 C 138.16 84.80 143.23 83.23 146.45 86.53 C 148.83 89.09 147.67 93.29 144.86 95.03 C 145.91 96.60 146.97 98.15 148.02 99.71 C 146.47 99.69 144.93 99.66 143.39 99.64 C 142.42 98.23 141.44 96.83 140.44 95.44 C 139.90 95.51 138.83 95.65 138.29 95.72 C 138.29 97.03 138.28 98.35 138.28 99.67 C 136.85 99.67 135.41 99.67 133.98 99.67 C 133.99 94.57 133.85 89.46 134.08 84.36 M 138.33 87.67 C 138.30 89.21 138.28 90.75 138.27 92.29 C 139.84 92.25 141.40 92.14 142.96 91.95 C 143.34 90.70 143.28 89.42 142.90 88.19 C 141.38 87.99 139.86 87.82 138.33 87.67 Z" />
<path fill="#ffffff" opacity="1.00" d=" M 152.89 84.44 C 156.87 84.37 160.85 84.47 164.83 84.32 C 164.84 85.47 164.85 86.63 164.86 87.78 C 162.31 87.74 159.76 87.74 157.21 87.70 C 157.20 88.37 157.18 89.71 157.17 90.37 C 159.43 90.33 161.69 90.32 163.94 90.29 C 163.94 91.12 163.94 92.77 163.93 93.59 C 161.68 93.56 159.42 93.55 157.17 93.50 C 157.18 94.45 157.19 95.41 157.20 96.38 C 159.84 96.32 162.48 96.32 165.12 96.32 C 165.14 97.16 165.18 98.83 165.19 99.67 C 161.10 99.67 157.01 99.67 152.91 99.67 C 152.86 94.59 152.89 89.51 152.89 84.44 Z" />
<path fill="#ffffff" opacity="1.00" d=" M 170.31 84.39 C 171.53 84.48 172.85 84.14 174.00 84.66 C 176.30 87.22 178.39 89.95 180.64 92.56 C 180.60 89.86 180.59 87.16 180.60 84.46 C 181.67 84.43 183.81 84.38 184.87 84.36 C 184.85 89.45 184.87 94.54 184.86 99.63 C 183.97 99.65 182.20 99.70 181.31 99.72 C 179.08 97.00 176.87 94.26 174.56 91.61 C 174.55 94.30 174.55 97.00 174.57 99.69 C 173.51 99.68 171.40 99.65 170.35 99.64 C 170.30 94.55 170.35 89.47 170.31 84.39 Z" />
<path fill="#ffffff" opacity="1.00" d=" M 189.31 84.38 C 193.88 84.43 198.44 84.37 203.01 84.45 C 202.99 85.29 202.95 86.97 202.93 87.81 C 201.38 87.81 199.83 87.80 198.29 87.80 C 198.28 91.75 198.28 95.71 198.29 99.67 C 196.84 99.67 195.40 99.67 193.95 99.67 C 193.97 95.71 193.95 91.76 193.97 87.81 C 192.38 87.80 190.79 87.77 189.21 87.74 C 189.24 86.62 189.27 85.50 189.31 84.38 Z" />
<path fill="#ffffff" opacity="1.00" d=" M 211.39 84.46 C 212.83 84.42 214.28 84.39 215.73 84.37 C 217.92 89.48 220.26 94.53 222.46 99.64 C 220.99 99.66 219.52 99.68 218.06 99.71 C 217.74 98.97 217.11 97.49 216.80 96.76 C 214.63 96.72 212.47 96.72 210.30 96.72 C 210.01 97.45 209.42 98.93 209.13 99.67 C 208.02 99.67 205.81 99.67 204.70 99.68 C 207.00 94.63 209.20 89.55 211.39 84.46 M 213.57 88.60 C 212.93 90.22 212.26 91.84 211.60 93.45 C 212.91 93.48 214.23 93.50 215.55 93.49 C 214.88 91.87 214.22 90.24 213.57 88.60 Z" />
<path fill="#ffffff" opacity="1.00" d=" M 226.54 84.35 C 227.96 84.38 229.38 84.39 230.81 84.38 C 230.73 88.33 230.78 92.28 230.77 96.24 C 233.20 96.27 235.64 96.27 238.08 96.26 C 238.07 97.11 238.06 98.82 238.05 99.67 C 234.20 99.67 230.35 99.68 226.50 99.65 C 226.43 94.55 226.36 89.44 226.54 84.35 Z" />
<path fill="#ffffff" opacity="1.00" d=" M 243.97 85.14 C 247.10 83.37 250.84 84.24 254.07 85.22 C 253.62 86.30 253.16 87.39 252.71 88.47 C 250.29 87.78 247.07 86.40 245.49 89.25 C 248.47 90.75 253.28 90.37 254.53 94.10 C 255.34 97.40 252.00 99.78 249.06 100.00 L 246.79 100.00 C 244.95 99.65 243.15 99.13 241.37 98.59 C 241.82 97.48 242.29 96.39 242.76 95.29 C 245.38 96.23 248.81 97.76 250.94 95.02 C 248.30 93.92 245.37 93.52 242.92 92.02 C 240.76 90.16 241.61 86.45 243.97 85.14 Z" />
</g>
</svg>
