<?xml version="1.0" encoding="UTF-8" ?>
<!DOCTYPE svg PUBLIC "-//W3C//DTD SVG 1.1//EN" "http://www.w3.org/Graphics/SVG/1.1/DTD/svg11.dtd">
<svg width="1010pt" height="498pt" viewBox="0 0 1010 498" version="1.1" xmlns="http://www.w3.org/2000/svg">
<g id="#000000ff">
</g>
<g id="#ffffffff">
<path fill="#dddddd" opacity="1.00" d=" M 298.80 155.91 C 311.10 154.02 323.57 154.49 335.96 154.43 C 492.52 154.44 649.08 154.42 805.64 154.44 C 789.97 175.22 773.99 195.76 758.31 216.53 C 613.86 216.52 469.41 216.54 324.96 216.53 C 307.52 216.20 289.56 220.73 275.45 231.29 C 262.97 240.60 254.04 255.18 253.24 270.92 C 252.19 284.94 256.70 299.35 266.20 309.80 C 278.14 322.95 295.74 329.55 313.09 331.40 C 318.40 331.83 323.75 331.71 329.08 331.72 C 357.27 331.73 385.47 331.71 413.66 331.73 C 413.63 320.24 413.65 308.74 413.66 297.24 C 372.45 297.31 331.24 297.27 290.02 297.26 C 304.45 280.28 318.55 263.03 332.85 245.94 C 333.67 245.06 334.47 243.68 335.90 243.90 C 386.35 243.85 436.80 243.93 487.25 243.86 C 487.28 293.14 487.20 342.42 487.29 391.69 C 487.07 393.10 485.38 393.73 484.12 393.38 C 429.07 393.28 374.02 393.42 318.97 393.31 C 302.47 392.72 285.94 390.45 270.17 385.42 C 250.13 378.93 230.99 368.78 215.69 354.16 C 199.45 338.85 187.38 318.91 182.38 297.10 C 177.27 274.37 178.87 249.90 188.27 228.48 C 197.81 206.86 214.51 188.65 234.83 176.68 C 254.24 165.09 276.38 158.37 298.80 155.91 Z" />
<path fill="#dddddd" opacity="1.00" d=" M 497.24 243.91 C 521.61 243.90 545.98 243.80 570.33 243.96 C 576.53 248.65 584.41 249.69 591.98 249.72 C 636.99 249.76 682.01 249.71 727.03 249.75 C 744.14 250.29 761.59 252.21 777.39 259.25 C 789.81 264.66 800.95 274.05 806.50 286.61 C 813.53 302.19 813.32 320.06 809.85 336.51 C 806.94 351.14 798.83 364.75 786.79 373.67 C 772.35 384.26 754.63 389.51 737.03 391.58 C 718.13 394.27 699.00 393.09 679.98 393.35 C 615.76 393.39 551.54 393.27 487.32 393.41 C 487.82 392.64 488.32 391.88 488.82 391.12 C 504.26 371.38 519.42 351.41 534.90 331.70 C 595.60 331.75 656.30 331.71 716.99 331.72 C 723.30 331.81 729.91 330.86 735.26 327.30 C 740.74 322.99 741.49 315.16 739.97 308.81 C 739.22 304.95 736.33 301.80 732.85 300.14 C 727.57 297.81 721.74 297.22 716.03 297.28 C 672.36 297.27 628.69 297.27 585.02 297.28 C 579.03 297.41 573.07 296.62 567.09 296.43 C 548.68 294.35 529.74 288.98 515.53 276.56 C 505.86 268.23 499.64 256.37 497.24 243.91 Z" />
</g>
</svg>
