<?xml version="1.0" encoding="UTF-8" ?>
<!DOCTYPE svg PUBLIC "-//W3C//DTD SVG 1.1//EN" "http://www.w3.org/Graphics/SVG/1.1/DTD/svg11.dtd">
<svg width="512pt" height="512pt" viewBox="0 0 512 512" version="1.1" xmlns="http://www.w3.org/2000/svg">
<g id="#fffffff">
<path fill="#ffffff" opacity="1.00" d=" M 252.69 364.58 C 258.67 364.26 264.66 364.60 270.63 364.17 C 271.82 372.55 271.05 381.04 271.33 389.47 C 265.10 389.54 258.87 389.51 252.64 389.50 C 252.74 381.19 252.78 372.88 252.69 364.58 Z" />
</g>
<g id="#d861ffff">
<path fill="#ffffff" opacity="1.00" d=" M 306.85 134.94 C 310.73 117.37 327.97 103.63 346.11 105.05 C 352.84 105.91 355.80 115.34 350.93 119.98 C 347.41 124.05 341.54 122.12 337.13 124.21 C 331.96 126.20 327.53 130.30 325.62 135.56 C 345.11 139.53 361.07 156.17 364.41 175.75 C 369.92 175.92 375.45 175.60 380.96 175.91 C 386.06 176.11 389.86 181.82 388.53 186.65 C 387.71 190.18 384.55 193.15 380.88 193.40 C 375.40 193.77 369.90 193.38 364.42 193.58 C 362.93 201.33 359.66 208.68 354.95 215.02 C 360.26 228.47 364.85 242.47 365.18 257.07 C 366.28 281.88 357.82 306.90 342.16 326.14 C 328.55 343.08 309.44 355.54 288.41 361.03 C 288.35 370.54 288.37 380.06 288.38 389.57 C 292.33 389.60 297.06 388.62 300.12 391.84 C 305.67 396.21 302.19 406.66 295.04 406.61 C 273.35 406.71 251.65 406.62 229.96 406.65 C 226.28 406.99 222.16 404.61 221.42 400.86 C 221.25 397.93 220.66 394.34 223.28 392.27 C 226.31 388.61 231.39 389.57 235.56 389.54 C 235.50 381.18 235.48 372.82 235.52 364.47 C 214.98 364.20 194.43 358.88 176.73 348.35 C 151.32 333.66 131.72 309.07 123.53 280.85 C 122.13 275.63 126.65 270.06 131.99 270.17 C 136.38 270.57 140.35 272.84 144.69 273.60 C 147.04 280.25 151.09 286.10 155.42 291.60 C 168.08 307.46 186.18 318.84 205.94 323.43 C 228.33 328.79 252.66 325.15 272.55 313.57 C 280.76 308.59 289.74 304.54 296.57 297.62 C 309.03 285.74 315.74 268.18 314.46 251.02 C 313.58 237.99 308.26 225.28 299.41 215.65 C 290.82 206.00 278.93 199.66 266.33 197.08 C 262.58 182.15 265.87 165.51 275.63 153.51 C 283.23 143.65 294.71 137.25 306.85 134.94 M 317.47 170.66 C 312.08 172.81 310.23 180.40 314.39 184.60 C 318.54 189.63 327.74 187.60 329.25 181.21 C 331.62 174.57 323.86 167.48 317.47 170.66 M 252.69 364.58 C 252.78 372.88 252.74 381.19 252.64 389.50 C 258.87 389.51 265.10 389.54 271.33 389.47 C 271.05 381.04 271.82 372.55 270.63 364.17 C 264.66 364.60 258.67 364.26 252.69 364.58 Z" />
<path fill="#ffffff" opacity="1.00" d=" M 247.50 214.61 C 257.81 212.59 268.89 214.50 277.76 220.18 C 286.90 225.94 293.62 235.41 295.96 245.96 C 299.10 259.17 295.01 273.77 285.61 283.54 C 279.79 289.82 271.81 293.26 264.62 297.64 C 250.70 305.88 234.05 309.63 217.96 307.55 C 195.17 304.99 173.96 291.06 162.77 271.02 C 160.41 267.00 162.03 261.37 166.14 259.18 C 188.72 246.07 211.35 233.03 233.95 219.96 C 238.15 217.48 242.70 215.56 247.50 214.61 Z" />
</g>
</svg>
