<svg viewBox="0 0 2048 1329.1012" xmlns="http://www.w3.org/2000/svg"><path d="M43.827 597.04c22.527 12.278 49.224 19.778 77.61 20.475l.214.004c26.83 0 40.96-14.542 40.96-32.36s-9.83-28.67-39.73-45.26c-34.816-20.685-61.44-49.562-61.44-87.45 0-66.765 57.14-114.278 140.493-114.278 2.502-.133 5.43-.21 8.377-.21 25.966 0 50.556 5.894 72.504 16.416l-1.01-.436-22.118 67.584c-17.357-8.216-37.7-13.04-59.164-13.107h-.023c-26.83 0-44.033 12.287-44.033 31.743 0 15.155 12.288 26.214 36.454 39.322 37.275 20.48 68.2 50.176 68.2 90.93 0 75.777-61.44 118.58-146.638 117.76-.864.015-1.884.023-2.905.023-33.44 0-64.84-8.74-92.04-24.062l.942.487zm236.34 84.786l92.364-485.58h95.028L430.08 387.118h1.434c23.623-30.24 60.018-49.555 100.932-49.767h.035c49.563 0 77.825 32.358 77.825 86.22-.588 22.104-3.095 43.25-7.366 63.75l.402-2.31-37.274 196.2H471.04l36.455-189.646c2.552-12.29 4.04-26.434 4.096-40.917v-.043c0-20.48-8.19-35.226-29.695-35.226-30.31 0-62.67 38.503-74.957 101.172L375.194 682.44zm674.2-210.74c0 117.76-75.775 218.318-188.005 218.318-85.402 0-130.867-59.392-130.867-132.915 0-115.1 75.776-218.318 190.054-218.318 88.882-.82 128.818 64.102 128.818 132.915zm-221.593 81.92c0 34.407 13.722 61.44 46.08 61.44 50.176 0 78.438-89.497 78.438-148.07 0-28.26-11.06-57.138-44.85-57.138-51.61.41-79.668 90.112-79.668 143.77zm198.86 263.783l66.15-348.16c7.58-39.323 15.156-91.547 19.252-125.953h83.968l-5.53 50.995h1.434c22.012-33.086 58.572-54.984 100.33-56.518l.226-.007c69.632 0 97.69 57.14 97.69 121.242 0 115.71-72.91 229.99-184.32 229.99-1.087.036-2.364.057-3.646.057-19.074 0-37.065-4.64-52.905-12.853l.64.302h-2.047l-26.214 140.493zm135.784-213.607c10.165 8.547 23.397 13.74 37.843 13.74.52 0 1.04-.007 1.556-.02l-.076.002c53.043 0 89.498-87.45 89.498-148.685 0-25.395-9.01-52.43-37.888-52.43-32.973 0-64.102 39.323-74.957 98.51zm230.81 78.643l64.1-336.69h95.643l-65.33 336.69zm122.88-378.06c-.29.006-.633.01-.976.01-24.205 0-43.827-19.622-43.827-43.827 0-1.302.057-2.59.168-3.863l-.012.165c-.003-.244-.005-.53-.005-.82 0-29.974 24.298-54.272 54.272-54.272h.222-.013c.756-.045 1.64-.07 2.53-.07 24.883 0 45.055 20.17 45.055 45.055 0 .89-.026 1.773-.077 2.65l.006-.12c.014.438.02.954.02 1.472 0 29.634-24.022 53.658-53.657 53.658-.727 0-1.45-.014-2.172-.043l.104.003zm54.68 378.06l50.382-266.24h-44.237l13.722-71.68h44.032l2.662-15.77c5.932-42.523 25.905-79.557 55.003-107.03l.087-.08c24.08-19.796 55.217-31.797 89.16-31.797 1.342 0 2.682.018 4.016.055l-.196-.004c1.564-.065 3.4-.102 5.244-.102 16.648 0 32.585 3.042 47.286 8.6l-.92-.305-18.637 74.342c-8.87-3.32-19.12-5.33-29.814-5.528h-.088c-31.744 0-50.995 28.876-56.525 61.44l-3.482 15.77h66.355l-13.107 71.68h-65.536l-50.38 266.24zm341.607-336.896l15.155 151.552c4.096 33.792 6.963 57.754 8.192 79.872h2.458c7.578-22.733 14.54-44.032 28.262-80.69l57.754-150.94h98.304l-116.326 249.243c-40.96 85.402-81.92 148.07-124.723 188.62-25.396 23.87-56.69 41.762-91.45 51.255l-1.528.355-26.214-80.69c20.223-6.667 37.792-15.56 53.71-26.656l-.667.442c21.5-14.744 38.903-33.916 51.186-56.296l.424-.843c1.752-2.955 2.788-6.515 2.788-10.316 0-1.94-.27-3.82-.775-5.598l.035.143-57.14-309.248z"/></svg>