<svg  viewBox="330 0 465 600" version="1.1" xmlns="http://www.w3.org/2000/svg" xmlns:xlink="http://www.w3.org/1999/xlink">
    <!-- Generator: Sketch 41.2 (35397) - http://www.bohemiancoding.com/sketch -->
    <title>Hero-Animation</title>
    <desc>Stacks, A Drupal Module for Content Editors.</desc>
    <defs>
        <rect id="path-1" x="0" y="8" width="446" height="560"></rect>
        <filter x="-50%" y="-50%" width="200%" height="200%" filterUnits="objectBoundingBox" id="filter-2">
            <feOffset dx="0" dy="2" in="SourceAlpha" result="shadowOffsetOuter1"></feOffset>
            <feGaussianBlur stdDeviation="10" in="shadowOffsetOuter1" result="shadowBlurOuter1"></feGaussianBlur>
            <feComposite in="shadowBlurOuter1" in2="SourceAlpha" operator="out" result="shadowBlurOuter1"></feComposite>
            <feColorMatrix values="0 0 0 0 0   0 0 0 0 0   0 0 0 0 0  0 0 0 0.05 0" type="matrix" in="shadowBlurOuter1"></feColorMatrix>
        </filter>
        <mask id="mask-3" maskContentUnits="userSpaceOnUse" maskUnits="objectBoundingBox" x="0" y="0" width="446" height="560" fill="white">
            <use xlink:href="#path-1"></use>
        </mask>
        <circle id="path-4" cx="302" cy="62" r="25"></circle>
        <mask id="mask-5" maskContentUnits="userSpaceOnUse" maskUnits="objectBoundingBox" x="0" y="0" width="50" height="50" fill="white">
            <use xlink:href="#path-4"></use>
        </mask>
        <rect id="path-6" x="0" y="0" width="284" height="107" rx="3"></rect>
        <filter x="-50%" y="-50%" width="200%" height="200%" filterUnits="objectBoundingBox" id="filter-7">
            <feOffset dx="0" dy="2" in="SourceAlpha" result="shadowOffsetOuter1"></feOffset>
            <feGaussianBlur stdDeviation="10" in="shadowOffsetOuter1" result="shadowBlurOuter1"></feGaussianBlur>
            <feColorMatrix values="0 0 0 0 0   0 0 0 0 0   0 0 0 0 0  0 0 0 0.1 0" type="matrix" in="shadowBlurOuter1"></feColorMatrix>
        </filter>
        <circle id="path-8" cx="10" cy="10" r="10"></circle>
        <mask id="mask-9" maskContentUnits="userSpaceOnUse" maskUnits="objectBoundingBox" x="0" y="0" width="20" height="20" fill="white">
            <use xlink:href="#path-8"></use>
        </mask>
        <circle id="path-10" cx="10" cy="35" r="10"></circle>
        <mask id="mask-11" maskContentUnits="userSpaceOnUse" maskUnits="objectBoundingBox" x="0" y="0" width="20" height="20" fill="white">
            <use xlink:href="#path-10"></use>
        </mask>
        <circle id="path-12" cx="10" cy="60" r="10"></circle>
        <mask id="mask-13" maskContentUnits="userSpaceOnUse" maskUnits="objectBoundingBox" x="0" y="0" width="20" height="20" fill="white">
            <use xlink:href="#path-12"></use>
        </mask>
        <rect id="path-14" x="0" y="0" width="284" height="107" rx="3"></rect>
        <filter x="-50%" y="-50%" width="200%" height="200%" filterUnits="objectBoundingBox" id="filter-15">
            <feOffset dx="0" dy="2" in="SourceAlpha" result="shadowOffsetOuter1"></feOffset>
            <feGaussianBlur stdDeviation="10" in="shadowOffsetOuter1" result="shadowBlurOuter1"></feGaussianBlur>
            <feColorMatrix values="0 0 0 0 0   0 0 0 0 0   0 0 0 0 0  0 0 0 0.1 0" type="matrix" in="shadowBlurOuter1"></feColorMatrix>
        </filter>
        <path d="M1,25.0065859 C1,23.3460944 2.11872356,21.2427102 3.48284127,20.3193074 L31.8436391,1.12122893 C32.758422,0.501991292 34.2398716,0.500836134 35.1563609,1.12122893 L63.5171587,20.3193074 C64.8883941,21.2475283 66,23.3340567 66,25.0065859 L66,61.9934141 C66,63.6539056 64.6573028,65 62.995277,65 L4.00472296,65 C2.34526029,65 1,63.6659433 1,61.9934141 L1,25.0065859 Z" id="path-16"></path>
        <mask id="mask-17" maskContentUnits="userSpaceOnUse" maskUnits="objectBoundingBox" x="0" y="0" width="65" height="65" fill="white">
            <use xlink:href="#path-16"></use>
        </mask>
        <path d="M33,33 L62.4056019,61.514523 C64.3907331,63.4394988 63.7662434,65 60.9986681,65 L5.00133194,65 C2.23917258,65 1.61399771,63.4349113 3.59439813,61.514523 L33,33 Z" id="path-18"></path>
        <mask id="mask-19" maskContentUnits="userSpaceOnUse" maskUnits="objectBoundingBox" x="0" y="0" width="66" height="32" fill="white">
            <use xlink:href="#path-18"></use>
        </mask>
        <rect id="path-20" x="0" y="0" width="284" height="107" rx="3"></rect>
        <filter x="-50%" y="-50%" width="200%" height="200%" filterUnits="objectBoundingBox" id="filter-21">
            <feOffset dx="0" dy="2" in="SourceAlpha" result="shadowOffsetOuter1"></feOffset>
            <feGaussianBlur stdDeviation="10" in="shadowOffsetOuter1" result="shadowBlurOuter1"></feGaussianBlur>
            <feColorMatrix values="0 0 0 0 0   0 0 0 0 0   0 0 0 0 0  0 0 0 0.1 0" type="matrix" in="shadowBlurOuter1"></feColorMatrix>
        </filter>
        <rect id="path-22" x="0" y="0" width="20" height="16" rx="1"></rect>
        <mask id="mask-23" maskContentUnits="userSpaceOnUse" maskUnits="objectBoundingBox" x="0" y="0" width="20" height="16" fill="white">
            <use xlink:href="#path-22"></use>
        </mask>
        <rect id="path-24" x="0" y="25" width="20" height="16" rx="1"></rect>
        <mask id="mask-25" maskContentUnits="userSpaceOnUse" maskUnits="objectBoundingBox" x="0" y="0" width="20" height="16" fill="white">
            <use xlink:href="#path-24"></use>
        </mask>
        <rect id="path-26" x="0" y="50" width="20" height="16" rx="1"></rect>
        <mask id="mask-27" maskContentUnits="userSpaceOnUse" maskUnits="objectBoundingBox" x="0" y="0" width="20" height="16" fill="white">
            <use xlink:href="#path-26"></use>
        </mask>
        <rect id="path-28" x="0" y="0" width="284" height="107" rx="3"></rect>
        <filter x="-50%" y="-50%" width="200%" height="200%" filterUnits="objectBoundingBox" id="filter-29">
            <feOffset dx="0" dy="2" in="SourceAlpha" result="shadowOffsetOuter1"></feOffset>
            <feGaussianBlur stdDeviation="10" in="shadowOffsetOuter1" result="shadowBlurOuter1"></feGaussianBlur>
            <feColorMatrix values="0 0 0 0 0   0 0 0 0 0   0 0 0 0 0  0 0 0 0.1 0" type="matrix" in="shadowBlurOuter1"></feColorMatrix>
        </filter>
        <rect id="path-30" x="0" y="0" width="65" height="67" rx="3"></rect>
        <mask id="mask-31" maskContentUnits="userSpaceOnUse" maskUnits="objectBoundingBox" x="0" y="0" width="65" height="67" fill="white">
            <use xlink:href="#path-30"></use>
        </mask>
    </defs>
    <g id="Page-1" stroke="none" stroke-width="1" fill="none" fill-rule="evenodd">
        <g id="Desktop-HD-Copy-5" transform="translate(-317.000000, -402.000000)">
            <g id="Hero-Animation" transform="translate(337.000000, 412.000000)">
                <g id="Site" transform="translate(319.000000, 0.000000)">
                    <g id="Browser">
                        <g id="Rectangle-Copy">
                            <use fill="black" fill-opacity="1" filter="url(#filter-2)" xlink:href="#path-1"></use>
                            <use stroke="#F3F5F5" mask="url(#mask-3)" stroke-width="2" fill="#FFFFFF" fill-rule="evenodd" xlink:href="#path-1"></use>
                        </g>
                        <rect id="Rectangle-22" fill="#B8BEBF" x="0" y="0" width="446" height="32"></rect>
                        <circle id="Oval-2" fill="#D5D8D9" cx="16" cy="16" r="5"></circle>
                        <circle id="Oval-2-Copy" fill="#D5D8D9" cx="32" cy="16" r="5"></circle>
                        <circle id="Oval-2-Copy-2" fill="#D5D8D9" cx="48" cy="16" r="5"></circle>
                    </g>
                    <g id="People" transform="translate(49.000000, 467.000000)">
                        <g id="People-Col4" transform="translate(291.000000, 0.000000)">
                            <circle id="Oval-3" fill="#E6EFF0" cx="27" cy="24" r="24"></circle>
                            <rect id="Rectangle-Copy-17" fill="#B8CCCF" x="0" y="56" width="54" height="6" rx="3"></rect>
                            <rect id="Rectangle-Copy-30" fill="#E6EFF0" x="0" y="67" width="54" height="4" rx="2"></rect>
                        </g>
                        <g id="People-Col3" transform="translate(194.000000, 0.000000)">
                            <circle id="Oval-3" fill="#E6EFF0" cx="27" cy="24" r="24"></circle>
                            <rect id="Rectangle-Copy-17" fill="#B8CCCF" x="0" y="56" width="54" height="6" rx="3"></rect>
                            <rect id="Rectangle-Copy-30" fill="#E6EFF0" x="0" y="67" width="54" height="4" rx="2"></rect>
                        </g>
                        <g id="People-Col2" transform="translate(97.000000, 0.000000)">
                            <circle id="Oval-3" fill="#E6EFF0" cx="27" cy="24" r="24"></circle>
                            <rect id="Rectangle-Copy-17" fill="#B8CCCF" x="0" y="56" width="54" height="6" rx="3"></rect>
                            <rect id="Rectangle-Copy-30" fill="#E6EFF0" x="0" y="67" width="54" height="4" rx="2"></rect>
                        </g>
                        <g id="People-Col1">
                            <circle id="Oval-3" fill="#E6EFF0" cx="27" cy="24" r="24"></circle>
                            <rect id="Rectangle-Copy-17" fill="#B8CCCF" x="0" y="56" width="54" height="6" rx="3"></rect>
                            <rect id="Rectangle-Copy-30" fill="#E6EFF0" x="0" y="67" width="54" height="4" rx="2"></rect>
                        </g>
                    </g>
                    <g id="CTA" transform="translate(10.000000, 362.000000)">
                        <rect id="CTA-Animation-Bg" fill="#FFFFFF" x="0" y="0" width="429" height="88"></rect>
                        <g id="CTA-Content" transform="translate(8.000000, 11.000000)">
                            <rect id="Rectangle-21" fill="#B8CCCF" x="0" y="0" width="411" height="67"></rect>
                            <rect id="Rectangle-21-Copy" fill="#E6EFF0" x="258" y="21" width="118" height="25" rx="12.5"></rect>
                            <rect id="Rectangle-21-Copy-2" fill="#E6EFF0" x="31" y="20" width="118" height="8" rx="3"></rect>
                            <rect id="Rectangle-21-Copy-3" fill="#E6EFF0" opacity="0.5" x="31" y="36" width="110" height="4" rx="2"></rect>
                            <rect id="Rectangle-21-Copy-5" fill="#E6EFF0" opacity="0.5" x="31" y="44" width="88" height="4" rx="2"></rect>
                        </g>
                    </g>
                    <g id="News" transform="translate(9.000000, 243.000000)">
                        <rect id="News-Animation-Bg" fill="#FFFFFF" x="0" y="0" width="429" height="110"></rect>
                        <g id="News-Col3" transform="translate(297.000000, 12.000000)">
                            <rect id="Rectangle-Copy-17" fill="#B8CCCF" x="0" y="0" width="88" height="16" rx="3"></rect>
                            <rect id="Rectangle-Copy-23" fill="#E7F0F0" x="0" y="24" width="88" height="4" rx="2"></rect>
                            <rect id="Rectangle-Copy-24" fill="#E7F0F0" x="0" y="32.5" width="80.5106383" height="4" rx="2"></rect>
                            <rect id="Rectangle-Copy-31" fill="#E7F0F0" x="0" y="41" width="86" height="4" rx="2"></rect>
                            <rect id="Rectangle-Copy-32" fill="#E7F0F0" x="0" y="49.5" width="80.5106383" height="4" rx="2"></rect>
                            <rect id="Rectangle-Copy-33" fill="#E7F0F0" x="0" y="58" width="88" height="4" rx="2"></rect>
                            <rect id="Rectangle-Copy-34" fill="#E7F0F0" x="0" y="66.5" width="76.7659574" height="4" rx="2"></rect>
                            <rect id="Rectangle-Copy-35" fill="#E7F0F0" x="0" y="75" width="47" height="4" rx="2"></rect>
                        </g>
                        <g id="News-Col2" transform="translate(167.000000, 12.000000)">
                            <rect id="Rectangle-Copy-17" fill="#B8CCCF" x="0" y="0" width="88" height="16" rx="3"></rect>
                            <rect id="Rectangle-Copy-23" fill="#E7F0F0" x="0" y="24" width="88" height="4" rx="2"></rect>
                            <rect id="Rectangle-Copy-24" fill="#E7F0F0" x="0" y="32.5" width="80.5106383" height="4" rx="2"></rect>
                            <rect id="Rectangle-Copy-31" fill="#E7F0F0" x="0" y="41" width="86" height="4" rx="2"></rect>
                            <rect id="Rectangle-Copy-32" fill="#E7F0F0" x="0" y="49.5" width="80.5106383" height="4" rx="2"></rect>
                            <rect id="Rectangle-Copy-33" fill="#E7F0F0" x="0" y="58" width="88" height="4" rx="2"></rect>
                            <rect id="Rectangle-Copy-34" fill="#E7F0F0" x="0" y="66.5" width="76.7659574" height="4" rx="2"></rect>
                            <rect id="Rectangle-Copy-35" fill="#E7F0F0" x="0" y="75" width="47" height="4" rx="2"></rect>
                        </g>
                        <g id="News-Col1" transform="translate(40.000000, 12.000000)">
                            <rect id="Rectangle-Copy-17" fill="#B8CCCF" x="0" y="0" width="88" height="16" rx="3"></rect>
                            <rect id="Rectangle-Copy-23" fill="#E7F0F0" x="0" y="24" width="88" height="4" rx="2"></rect>
                            <rect id="Rectangle-Copy-24" fill="#E7F0F0" x="0" y="32.5" width="80.5106383" height="4" rx="2"></rect>
                            <rect id="Rectangle-Copy-31" fill="#E7F0F0" x="0" y="41" width="86" height="4" rx="2"></rect>
                            <rect id="Rectangle-Copy-32" fill="#E7F0F0" x="0" y="49.5" width="80.5106383" height="4" rx="2"></rect>
                            <rect id="Rectangle-Copy-33" fill="#E7F0F0" x="0" y="58" width="88" height="4" rx="2"></rect>
                            <rect id="Rectangle-Copy-34" fill="#E7F0F0" x="0" y="66.5" width="76.7659574" height="4" rx="2"></rect>
                            <rect id="Rectangle-Copy-35" fill="#E7F0F0" x="0" y="75" width="47" height="4" rx="2"></rect>
                        </g>
                    </g>
                    <g id="Hero" transform="translate(18.000000, 50.000000)">
                        <rect id="Rectangle-Copy-22" fill="#E7F0F0" x="0" y="0" width="411" height="180" rx="1"></rect>
                        <rect id="Rectangle-21-Copy" fill="#FFFFFF" x="31" y="112" width="60" height="20" rx="10"></rect>
                        <rect id="Rectangle-Copy-17" fill="#FFFFFF" x="31" y="53" width="120" height="16" rx="3"></rect>
                        <rect id="Rectangle-Copy-19" fill="#D1DFE1" x="31" y="77" width="98" height="4" rx="2"></rect>
                        <rect id="Rectangle-Copy-28" fill="#D1DFE1" x="31" y="85" width="104" height="4" rx="2"></rect>
                        <rect id="Rectangle-Copy-29" fill="#D1DFE1" x="31" y="93" width="88" height="4" rx="2"></rect>
                        <polygon id="Path-2" stroke="#D1DFE1" stroke-width="6" stroke-linecap="round" fill="#D1DFE1" points="196 176.810414 260.250212 112.560202 301.718645 154.028635 369.74728 86 408 124.25272 408 176.810414"></polygon>
                        <use id="Oval" stroke="#B8CDCF" mask="url(#mask-5)" stroke-width="12" stroke-linecap="round" fill="#B8CCCF" opacity="0.449999988" xlink:href="#path-4"></use>
                    </g>
                </g>
            </g>
        </g>
    </g>
</svg>