<?xml version="1.0" standalone="no"?>
<!DOCTYPE svg PUBLIC "-//W3C//DTD SVG 20010904//EN"
 "http://www.w3.org/TR/2001/REC-SVG-20010904/DTD/svg10.dtd">
<svg version="1.0" xmlns="http://www.w3.org/2000/svg"
 width="700.000000pt" height="700.000000pt" viewBox="0 0 700.000000 700.000000"
 preserveAspectRatio="xMidYMid meet">
<metadata>
Created by potrace 1.14, written by Peter Selinger 2001-2017
</metadata>
<g transform="translate(0.000000,700.000000) scale(0.100000,-0.100000)"
fill="#000000" stroke="none">
<path d="M6935 6788 c-33 -39 -71 -84 -85 -101 -14 -16 -36 -42 -50 -57 -14
-15 -40 -45 -58 -68 -36 -44 -37 -45 -122 -142 -61 -70 -83 -96 -108 -125 -38
-45 -127 -150 -132 -155 -3 -3 -32 -36 -65 -75 -33 -38 -62 -72 -65 -75 -3 -3
-27 -32 -55 -65 -27 -33 -52 -62 -55 -65 -3 -3 -50 -57 -104 -120 -133 -155
-129 -151 -231 -270 -50 -57 -100 -116 -111 -130 -12 -14 -68 -79 -125 -145
-57 -66 -129 -149 -159 -185 -30 -36 -57 -67 -60 -70 -3 -3 -30 -34 -60 -70
-30 -36 -59 -70 -65 -76 -17 -19 -53 -60 -234 -272 -95 -112 -172 -204 -170
-206 2 -1 57 -19 122 -40 142 -46 328 -137 492 -239 l119 -75 34 46 c64 89
337 477 354 503 l16 26 -51 31 c-29 17 -115 61 -192 98 -77 37 -142 68 -143
70 -4 3 18 34 246 349 59 83 119 166 132 185 14 19 27 37 30 40 6 5 125 169
150 206 8 13 60 85 116 161 55 76 247 341 428 590 l327 452 -3 70 -3 70 -60
-71z"/>
<path d="M2508 6285 c-2 -1 -50 -5 -107 -9 -249 -15 -581 -117 -796 -243 -380
-225 -629 -489 -815 -868 -119 -241 -180 -461 -197 -710 -15 -220 -3 -376 52
-637 21 -101 116 -336 186 -461 142 -252 296 -434 455 -537 140 -91 467 -253
847 -421 92 -40 167 -76 167 -79 0 -3 -17 -33 -38 -66 -42 -63 -1002 -1595
-1213 -1934 -71 -113 -132 -209 -136 -215 -5 -5 -21 -32 -37 -58 l-28 -48 38
3 c36 3 45 13 246 268 115 146 238 301 272 345 34 44 167 213 295 375 280 356
256 325 383 486 56 72 148 188 203 258 55 70 131 167 169 214 37 48 114 146
169 217 56 72 106 135 112 141 5 6 21 26 35 44 14 18 96 123 184 234 87 111
204 259 260 330 158 202 275 350 289 366 7 8 26 33 42 55 16 22 32 42 36 45 3
3 29 36 59 74 29 39 180 230 334 425 447 568 466 592 466 599 0 10 -2127 9
-2136 0 -7 -8 -13 -593 -6 -633 3 -20 11 -20 685 -20 375 1 690 -1 700 -3 20
-5 19 -13 -25 -119 -69 -167 -240 -373 -403 -483 -165 -111 -361 -186 -541
-206 -301 -33 -579 37 -833 210 -99 67 -253 220 -325 323 -213 306 -284 652
-212 1030 3 18 18 70 32 115 81 256 255 499 474 664 129 98 343 197 471 218
19 3 45 8 59 12 52 12 286 11 365 -2 271 -47 554 -218 748 -454 34 -41 68 -82
76 -92 12 -14 28 -7 170 79 86 53 185 113 221 135 87 52 95 57 163 101 32 20
63 37 68 37 17 0 9 22 -30 76 -222 311 -553 563 -911 697 -95 35 -256 79 -340
92 -25 4 -53 9 -63 11 -50 9 -332 25 -339 19z"/>
<path d="M4015 3398 c-83 -94 -154 -176 -160 -182 -5 -6 -35 -40 -65 -76 -30
-35 -72 -82 -92 -105 -21 -22 -38 -43 -38 -46 0 -3 12 -12 28 -19 192 -90 438
-163 688 -206 192 -32 487 -95 594 -125 203 -58 351 -152 401 -255 32 -68 36
-157 10 -242 -47 -157 -189 -280 -399 -346 -114 -36 -157 -41 -327 -40 -252 1
-446 51 -706 183 -134 68 -375 204 -389 221 -3 3 -29 21 -58 39 -45 29 -55 32
-66 20 -7 -8 -71 -99 -141 -204 -71 -104 -155 -230 -188 -278 -33 -48 -58 -89
-56 -91 7 -6 283 -191 301 -201 196 -118 314 -176 468 -232 96 -35 338 -97
420 -107 25 -3 54 -8 65 -10 86 -16 465 -23 604 -11 550 47 947 276 1120 647
40 85 76 205 87 287 3 25 7 57 10 71 6 36 5 268 -1 315 -42 313 -173 534 -422
705 -172 120 -485 232 -768 276 -92 15 -584 132 -685 163 -36 12 -70 21 -75
21 -6 0 -78 -77 -160 -172z"/>
</g>
</svg>
